Ostrich Sans Inline Italic.ufo
<glyph name="numbersign" format="1">
  <advance width="562"/>
  <unicode hex="0023"/>
  <outline>
    <contour>
      <point x="223" y="257" type="line"/>
      <point x="367" y="257" type="line"/>
      <point x="436" y="416" type="line"/>
      <point x="293" y="416" type="line"/>
    </contour>
    <contour>
      <point x="195" y="239" type="line"/>
      <point x="64" y="239" type="line"/>
      <point x="69" y="257" type="line"/>
      <point x="205" y="257" type="line"/>
      <point x="274" y="416" type="line"/>
      <point x="136" y="416" type="line"/>
      <point x="141" y="434" type="line"/>
      <point x="283" y="434" type="line"/>
      <point x="378" y="647" type="line"/>
      <point x="396" y="647" type="line"/>
      <point x="301" y="434" type="line"/>
      <point x="445" y="434" type="line"/>
      <point x="475" y="505"/>
      <point x="509" y="576"/>
      <point x="540" y="647" type="curve"/>
      <point x="558" y="647" type="line"/>
      <point x="464" y="434" type="line"/>
      <point x="578" y="434" type="line"/>
      <point x="573" y="416" type="line"/>
      <point x="455" y="416" type="line"/>
      <point x="432" y="363"/>
      <point x="408" y="310"/>
      <point x="386" y="257" type="curve"/>
      <point x="504" y="257" type="line"/>
      <point x="499" y="239" type="line"/>
      <point x="375" y="239" type="line"/>
      <point x="282" y="28" type="line"/>
      <point x="264" y="28" type="line"/>
      <point x="358" y="239" type="line"/>
      <point x="214" y="239" type="line"/>
      <point x="118" y="28" type="line"/>
      <point x="101" y="28" type="line"/>
    </contour>
    <contour>
      <point x="62" y="0" type="line"/>
      <point x="134" y="0" type="line"/>
      <point x="230" y="211" type="line"/>
      <point x="318" y="211" type="line"/>
      <point x="224" y="0" type="line"/>
      <point x="299" y="0" type="line"/>
      <point x="324" y="59"/>
      <point x="364" y="147"/>
      <point x="392" y="211" type="curve"/>
      <point x="520" y="211" type="line"/>
      <point x="539" y="285" type="line"/>
      <point x="426" y="285" type="line"/>
      <point x="439" y="320"/>
      <point x="441" y="321"/>
      <point x="456" y="354" type="curve" smooth="yes"/>
      <point x="461" y="366"/>
      <point x="464" y="377"/>
      <point x="470" y="388" type="curve"/>
      <point x="593" y="388" type="line"/>
      <point x="612" y="462" type="line"/>
      <point x="504" y="462" type="line"/>
      <point x="598" y="674" type="line"/>
      <point x="523" y="674" type="line"/>
      <point x="507" y="638"/>
      <point x="482" y="580"/>
      <point x="467" y="546" type="curve" smooth="yes"/>
      <point x="429" y="462" type="line"/>
      <point x="341" y="462" type="line"/>
      <point x="437" y="674" type="line"/>
      <point x="363" y="674" type="line"/>
      <point x="267" y="462" type="line"/>
      <point x="121" y="462" type="line"/>
      <point x="102" y="388" type="line"/>
      <point x="234" y="388" type="line"/>
      <point x="190" y="285" type="line"/>
      <point x="48" y="285" type="line"/>
      <point x="29" y="211" type="line"/>
      <point x="155" y="211" type="line"/>
    </contour>
    <contour>
      <point x="308" y="388" type="line"/>
      <point x="396" y="388" type="line"/>
      <point x="351" y="285" type="line"/>
      <point x="263" y="285" type="line"/>
    </contour>
  </outline>
</glyph>
<glyph name="dollar" format="1">
  <advance width="340"/>
  <unicode hex="0024"/>
  <outline>
    <contour>
      <point x="310" y="250"/>
      <point x="276" y="289"/>
      <point x="248" y="318" type="curve"/>
      <point x="192" y="95" type="line"/>
      <point x="252" y="102"/>
      <point x="284" y="147"/>
      <point x="298" y="201" type="curve" smooth="yes"/>
    </contour>
    <contour>
      <point x="183" y="426"/>
      <point x="209" y="386"/>
      <point x="238" y="355" type="curve"/>
      <point x="294" y="579" type="line"/>
      <point x="246" y="568"/>
      <point x="207" y="522"/>
      <point x="195" y="477" type="curve" smooth="yes"/>
    </contour>
    <contour>
      <point x="168" y="76" type="line"/>
      <point x="95" y="84"/>
      <point x="90" y="150"/>
      <point x="106" y="216" type="curve"/>
      <point x="110" y="230" type="line"/>
      <point x="128" y="230" type="line"/>
      <point x="115" y="178"/>
      <point x="107" y="99"/>
      <point x="173" y="95" type="curve"/>
      <point x="233" y="333" type="line"/>
      <point x="195" y="370"/>
      <point x="161" y="414"/>
      <point x="177" y="478" type="curve" smooth="yes"/>
      <point x="190" y="532"/>
      <point x="240" y="588"/>
      <point x="299" y="598" type="curve"/>
      <point x="311" y="647" type="line"/>
      <point x="330" y="647" type="line"/>
      <point x="318" y="599" type="line"/>
      <point x="396" y="597"/>
      <point x="395" y="523"/>
      <point x="378" y="457" type="curve"/>
      <point x="377" y="451" type="line"/>
      <point x="359" y="451" type="line"/>
      <point x="372" y="505"/>
      <point x="382" y="579"/>
      <point x="313" y="580" type="curve"/>
      <point x="253" y="340" type="line"/>
      <point x="290" y="307"/>
      <point x="331" y="261"/>
      <point x="315" y="200" type="curve" smooth="yes"/>
      <point x="300" y="140"/>
      <point x="254" y="80"/>
      <point x="187" y="76" type="curve"/>
      <point x="175" y="28" type="line"/>
      <point x="156" y="28" type="line"/>
    </contour>
    <contour>
      <point x="122" y="0" type="line"/>
      <point x="196" y="0" type="line"/>
      <point x="208" y="52" type="line"/>
      <point x="279" y="69"/>
      <point x="327" y="134"/>
      <point x="343" y="200" type="curve" smooth="yes"/>
      <point x="359" y="264"/>
      <point x="321" y="318"/>
      <point x="284" y="354" type="curve"/>
      <point x="331" y="542" type="line"/>
      <point x="348" y="523"/>
      <point x="335" y="469"/>
      <point x="324" y="423" type="curve"/>
      <point x="398" y="423" type="line"/>
      <point x="406" y="457" type="line" smooth="yes"/>
      <point x="425" y="530"/>
      <point x="431" y="611"/>
      <point x="351" y="624" type="curve"/>
      <point x="364" y="675" type="line"/>
      <point x="290" y="675" type="line"/>
      <point x="276" y="619" type="line"/>
      <point x="215" y="596"/>
      <point x="163" y="535"/>
      <point x="149" y="478" type="curve" smooth="yes"/>
      <point x="131" y="407"/>
      <point x="162" y="358"/>
      <point x="201" y="319" type="curve"/>
      <point x="155" y="136" type="line"/>
      <point x="141" y="157"/>
      <point x="151" y="215"/>
      <point x="162" y="257" type="curve"/>
      <point x="90" y="257" type="line"/>
      <point x="79" y="216" type="line" smooth="yes"/>
      <point x="61" y="144"/>
      <point x="65" y="74"/>
      <point x="135" y="54" type="curve"/>
    </contour>
    <contour>
      <point x="228" y="495"/>
      <point x="240" y="515"/>
      <point x="254" y="530" type="curve"/>
      <point x="227" y="423" type="line"/>
      <point x="218" y="441"/>
      <point x="218" y="456"/>
      <point x="223" y="477" type="curve"/>
    </contour>
    <contour>
      <point x="263" y="174"/>
      <point x="250" y="150"/>
      <point x="229" y="135" type="curve"/>
      <point x="259" y="255" type="line"/>
      <point x="268" y="240"/>
      <point x="274" y="219"/>
      <point x="270" y="201" type="curve"/>
    </contour>
  </outline>
</glyph>
<glyph name="percent" format="1">
  <advance width="469"/>
  <unicode hex="0025"/>
  <outline>
    <contour>
      <point x="500" y="647" type="line"/>
      <point x="97" y="28" type="line"/>
      <point x="79" y="28" type="line"/>
      <point x="481" y="647" type="line"/>
    </contour>
    <contour>
      <point x="433" y="231" type="line" smooth="yes"/>
      <point x="441" y="262"/>
      <point x="430" y="293"/>
      <point x="395" y="293" type="curve" smooth="yes"/>
      <point x="360" y="293"/>
      <point x="334" y="263"/>
      <point x="326" y="231" type="curve" smooth="yes"/>
      <point x="306" y="150" type="line" smooth="yes"/>
      <point x="298" y="117"/>
      <point x="308" y="87"/>
      <point x="343" y="87" type="curve" smooth="yes"/>
      <point x="378" y="87"/>
      <point x="405" y="118"/>
      <point x="413" y="150" type="curve" smooth="yes"/>
    </contour>
    <contour>
      <point x="444" y="309"/>
      <point x="460" y="273"/>
      <point x="449" y="231" type="curve" smooth="yes"/>
      <point x="429" y="150" type="line" smooth="yes"/>
      <point x="418" y="108"/>
      <point x="384" y="69"/>
      <point x="339" y="69" type="curve" smooth="yes"/>
      <point x="294" y="69"/>
      <point x="278" y="108"/>
      <point x="289" y="150" type="curve" smooth="yes"/>
      <point x="309" y="231" type="line" smooth="yes"/>
      <point x="320" y="273"/>
      <point x="354" y="309"/>
      <point x="399" y="309" type="curve" smooth="yes"/>
    </contour>
    <contour>
      <point x="142" y="411"/>
      <point x="152" y="380"/>
      <point x="187" y="380" type="curve" smooth="yes"/>
      <point x="223" y="380"/>
      <point x="248" y="410"/>
      <point x="256" y="443" type="curve" smooth="yes"/>
      <point x="276" y="523" type="line" smooth="yes"/>
      <point x="284" y="557"/>
      <point x="274" y="585"/>
      <point x="238" y="585" type="curve" smooth="yes"/>
      <point x="203" y="585"/>
      <point x="178" y="556"/>
      <point x="170" y="523" type="curve" smooth="yes"/>
      <point x="150" y="443" type="line" smooth="yes"/>
    </contour>
    <contour>
      <point x="263" y="400"/>
      <point x="228" y="363"/>
      <point x="183" y="363" type="curve" smooth="yes"/>
      <point x="139" y="363"/>
      <point x="121" y="401"/>
      <point x="132" y="443" type="curve" smooth="yes"/>
      <point x="152" y="523" type="line" smooth="yes"/>
      <point x="162" y="565"/>
      <point x="199" y="604"/>
      <point x="243" y="604" type="curve" smooth="yes"/>
      <point x="288" y="604"/>
      <point x="305" y="566"/>
      <point x="294" y="523" type="curve" smooth="yes"/>
      <point x="274" y="443" type="line" smooth="yes"/>
    </contour>
    <contour>
      <point x="322" y="523" type="line" smooth="yes"/>
      <point x="336" y="580"/>
      <point x="312" y="632"/>
      <point x="250" y="632" type="curve" smooth="yes"/>
      <point x="188" y="632"/>
      <point x="138" y="579"/>
      <point x="124" y="523" type="curve" smooth="yes"/>
      <point x="104" y="443" type="line" smooth="yes"/>
      <point x="90" y="387"/>
      <point x="114" y="335"/>
      <point x="176" y="335" type="curve" smooth="yes"/>
      <point x="238" y="335"/>
      <point x="288" y="386"/>
      <point x="302" y="443" type="curve" smooth="yes"/>
    </contour>
    <contour>
      <point x="198" y="523" type="line" smooth="yes"/>
      <point x="202" y="541"/>
      <point x="214" y="557"/>
      <point x="231" y="557" type="curve" smooth="yes"/>
      <point x="248" y="557"/>
      <point x="253" y="542"/>
      <point x="248" y="523" type="curve" smooth="yes"/>
      <point x="228" y="443" type="line" smooth="yes"/>
      <point x="223" y="424"/>
      <point x="211" y="408"/>
      <point x="194" y="408" type="curve" smooth="yes"/>
      <point x="177" y="408"/>
      <point x="173" y="424"/>
      <point x="178" y="443" type="curve" smooth="yes"/>
    </contour>
    <contour>
      <point x="344" y="337"/>
      <point x="295" y="287"/>
      <point x="281" y="231" type="curve" smooth="yes"/>
      <point x="261" y="150" type="line" smooth="yes"/>
      <point x="247" y="95"/>
      <point x="270" y="41"/>
      <point x="332" y="41" type="curve" smooth="yes"/>
      <point x="395" y="41"/>
      <point x="443" y="95"/>
      <point x="457" y="150" type="curve" smooth="yes"/>
      <point x="477" y="231" type="line" smooth="yes"/>
      <point x="491" y="287"/>
      <point x="469" y="337"/>
      <point x="406" y="337" type="curve" smooth="yes"/>
    </contour>
    <contour>
      <point x="385" y="150" type="line" smooth="yes"/>
      <point x="380" y="131"/>
      <point x="367" y="115"/>
      <point x="350" y="115" type="curve" smooth="yes"/>
      <point x="333" y="115"/>
      <point x="329" y="131"/>
      <point x="334" y="150" type="curve" smooth="yes"/>
      <point x="354" y="231" type="line" smooth="yes"/>
      <point x="359" y="249"/>
      <point x="372" y="265"/>
      <point x="388" y="265" type="curve" smooth="yes"/>
      <point x="405" y="265"/>
      <point x="409" y="248"/>
      <point x="405" y="231" type="curve" smooth="yes"/>
    </contour>
    <contour>
      <point x="469" y="674" type="line"/>
      <point x="32" y="0" type="line"/>
      <point x="109" y="0" type="line"/>
      <point x="547" y="674" type="line"/>
    </contour>
  </outline>
</glyph>
<glyph name="quotesingle" format="1">
  <advance width="101"/>
  <unicode hex="0027"/>
  <outline>
    <contour>
      <point x="187" y="647" type="line"/>
      <point x="205" y="647" type="line"/>
      <point x="187" y="576" type="line"/>
      <point x="169" y="576" type="line"/>
    </contour>
    <contour>
      <point x="134" y="548" type="line"/>
      <point x="208" y="548" type="line"/>
      <point x="240" y="674" type="line"/>
      <point x="166" y="674" type="line"/>
    </contour>
  </outline>
</glyph>
<glyph name="parenright" format="1">
  <advance width="178"/>
  <unicode hex="0029"/>
  <outline>
    <contour>
      <point x="44" y="46" type="line"/>
      <point x="128" y="125"/>
      <point x="170" y="252"/>
      <point x="192" y="339" type="curve" smooth="yes"/>
      <point x="212" y="420"/>
      <point x="229" y="554"/>
      <point x="189" y="625" type="curve"/>
      <point x="204" y="644" type="line"/>
      <point x="255" y="556"/>
      <point x="236" y="427"/>
      <point x="214" y="339" type="curve" smooth="yes"/>
      <point x="192" y="252"/>
      <point x="147" y="120"/>
      <point x="54" y="33" type="curve"/>
    </contour>
    <contour>
      <point x="44" y="-6" type="line"/>
      <point x="158" y="84"/>
      <point x="215" y="247"/>
      <point x="238" y="339" type="curve" smooth="yes"/>
      <point x="261" y="432"/>
      <point x="285" y="598"/>
      <point x="206" y="689" type="curve"/>
      <point x="154" y="619" type="line"/>
      <point x="207" y="556"/>
      <point x="188" y="415"/>
      <point x="169" y="339" type="curve" smooth="yes"/>
      <point x="144" y="237"/>
      <point x="95" y="121"/>
      <point x="6" y="44" type="curve"/>
    </contour>
  </outline>
</glyph>
<glyph name="comma" format="1">
  <advance width="99"/>
  <unicode hex="002C"/>
  <outline>
    <contour>
      <point x="-8" y="-31" type="line"/>
      <point x="32" y="37" type="line"/>
      <point x="54" y="37" type="line"/>
      <point x="7" y="-31" type="line"/>
    </contour>
    <contour>
      <point x="19" y="-59" type="line"/>
      <point x="101" y="64" type="line"/>
      <point x="19" y="64" type="line"/>
      <point x="-55" y="-59" type="line"/>
    </contour>
  </outline>
</glyph>
<glyph name="zero" format="1">
  <advance width="354"/>
  <unicode hex="0030"/>
  <outline>
    <contour>
      <point x="228" y="633"/>
      <point x="187" y="567"/>
      <point x="169" y="497" type="curve" smooth="yes"/>
      <point x="90" y="180" type="line" smooth="yes"/>
      <point x="73" y="111"/>
      <point x="80" y="41"/>
      <point x="160" y="41" type="curve" smooth="yes"/>
      <point x="240" y="41"/>
      <point x="279" y="110"/>
      <point x="296" y="179" type="curve" smooth="yes"/>
      <point x="375" y="496" type="line" smooth="yes"/>
      <point x="392" y="564"/>
      <point x="388" y="633"/>
      <point x="308" y="633" type="curve" smooth="yes"/>
    </contour>
    <contour>
      <point x="71" y="23"/>
      <point x="51" y="92"/>
      <point x="70" y="167" type="curve" smooth="yes"/>
      <point x="155" y="508" type="line" smooth="yes"/>
      <point x="175" y="587"/>
      <point x="226" y="651"/>
      <point x="313" y="651" type="curve" smooth="yes"/>
      <point x="396" y="651"/>
      <point x="415" y="583"/>
      <point x="396" y="508" type="curve" smooth="yes"/>
      <point x="311" y="167" type="line" smooth="yes"/>
      <point x="292" y="91"/>
      <point x="239" y="23"/>
      <point x="155" y="23" type="curve" smooth="yes"/>
    </contour>
    <contour>
      <point x="252" y="-5"/>
      <point x="316" y="76"/>
      <point x="339" y="167" type="curve" smooth="yes"/>
      <point x="424" y="508" type="line" smooth="yes"/>
      <point x="447" y="598"/>
      <point x="423" y="679"/>
      <point x="320" y="679" type="curve" smooth="yes"/>
      <point x="213" y="679"/>
      <point x="151" y="602"/>
      <point x="127" y="508" type="curve" smooth="yes"/>
      <point x="42" y="167" type="line" smooth="yes"/>
      <point x="20" y="77"/>
      <point x="44" y="-5"/>
      <point x="148" y="-5" type="curve" smooth="yes"/>
    </contour>
    <contour>
      <point x="359" y="605"/>
      <point x="361" y="550"/>
      <point x="347" y="496" type="curve" smooth="yes"/>
      <point x="268" y="179" type="line" smooth="yes"/>
      <point x="254" y="124"/>
      <point x="225" y="69"/>
      <point x="167" y="69" type="curve" smooth="yes"/>
      <point x="108" y="69"/>
      <point x="105" y="125"/>
      <point x="118" y="180" type="curve" smooth="yes"/>
      <point x="197" y="497" type="line" smooth="yes"/>
      <point x="211" y="553"/>
      <point x="242" y="605"/>
      <point x="301" y="605" type="curve" smooth="yes"/>
    </contour>
  </outline>
</glyph>
<glyph name="two" format="1">
  <advance width="338"/>
  <unicode hex="0032"/>
  <outline>
    <contour>
      <point x="38" y="28" type="line"/>
      <point x="111" y="317"/>
      <point x="309" y="293"/>
      <point x="363" y="511" type="curve" smooth="yes"/>
      <point x="378" y="571"/>
      <point x="372" y="634"/>
      <point x="300" y="634" type="curve" smooth="yes"/>
      <point x="218" y="634"/>
      <point x="187" y="553"/>
      <point x="171" y="489" type="curve"/>
      <point x="153" y="489" type="line"/>
      <point x="170" y="565"/>
      <point x="211" y="652"/>
      <point x="304" y="652" type="curve" smooth="yes"/>
      <point x="389" y="652"/>
      <point x="399" y="582"/>
      <point x="380" y="509" type="curve" smooth="yes"/>
      <point x="326" y="290"/>
      <point x="125" y="292"/>
      <point x="62" y="45" type="curve"/>
      <point x="265" y="45" type="line"/>
      <point x="260" y="28" type="line"/>
    </contour>
    <contour>
      <point x="282" y="0" type="line"/>
      <point x="300" y="73" type="line"/>
      <point x="97" y="73" type="line"/>
      <point x="129" y="172"/>
      <point x="188" y="223"/>
      <point x="246" y="274" type="curve" smooth="yes"/>
      <point x="314" y="334"/>
      <point x="379" y="392"/>
      <point x="408" y="509" type="curve" smooth="yes"/>
      <point x="430" y="596"/>
      <point x="417" y="680"/>
      <point x="311" y="680" type="curve" smooth="yes"/>
      <point x="194" y="680"/>
      <point x="143" y="563"/>
      <point x="120" y="461" type="curve"/>
      <point x="191" y="461" type="line"/>
      <point x="207" y="525"/>
      <point x="236" y="606"/>
      <point x="293" y="606" type="curve" smooth="yes"/>
      <point x="344" y="606"/>
      <point x="347" y="557"/>
      <point x="336" y="511" type="curve" smooth="yes"/>
      <point x="313" y="420"/>
      <point x="261" y="374"/>
      <point x="206" y="326" type="curve" smooth="yes"/>
      <point x="132" y="262"/>
      <point x="53" y="193"/>
      <point x="5" y="0" type="curve"/>
    </contour>
  </outline>
</glyph>
<glyph name="five" format="1">
  <advance width="330"/>
  <unicode hex="0035"/>
  <outline>
    <contour>
      <point x="388" y="629" type="line"/>
      <point x="203" y="629" type="line"/>
      <point x="135" y="354" type="line"/>
      <point x="161" y="386"/>
      <point x="203" y="409"/>
      <point x="240" y="409" type="curve" smooth="yes"/>
      <point x="330" y="409"/>
      <point x="334" y="335"/>
      <point x="315" y="259" type="curve" smooth="yes"/>
      <point x="293" y="172" type="line" smooth="yes"/>
      <point x="276" y="101"/>
      <point x="227" y="23"/>
      <point x="144" y="23" type="curve" smooth="yes"/>
      <point x="55" y="23"/>
      <point x="53" y="97"/>
      <point x="72" y="173" type="curve" smooth="yes"/>
      <point x="77" y="195" type="line"/>
      <point x="95" y="195" type="line"/>
      <point x="77" y="127"/>
      <point x="59" y="40"/>
      <point x="148" y="40" type="curve" smooth="yes"/>
      <point x="221" y="40"/>
      <point x="260" y="114"/>
      <point x="275" y="174" type="curve" smooth="yes"/>
      <point x="294" y="252" type="line" smooth="yes"/>
      <point x="311" y="318"/>
      <point x="318" y="390"/>
      <point x="236" y="390" type="curve" smooth="yes"/>
      <point x="186" y="390"/>
      <point x="142" y="344"/>
      <point x="120" y="299" type="curve"/>
      <point x="103" y="299" type="line"/>
      <point x="190" y="647" type="line"/>
      <point x="393" y="647" type="line"/>
    </contour>
    <contour>
      <point x="428" y="674" type="line"/>
      <point x="170" y="674" type="line"/>
      <point x="69" y="272" type="line"/>
      <point x="134" y="272" type="line"/>
      <point x="157" y="317"/>
      <point x="194" y="363"/>
      <point x="229" y="363" type="curve" smooth="yes"/>
      <point x="287" y="363"/>
      <point x="281" y="305"/>
      <point x="267" y="252" type="curve" smooth="yes"/>
      <point x="248" y="174" type="line" smooth="yes"/>
      <point x="236" y="126"/>
      <point x="207" y="68"/>
      <point x="155" y="68" type="curve" smooth="yes"/>
      <point x="92" y="68"/>
      <point x="111" y="154"/>
      <point x="129" y="222" type="curve"/>
      <point x="57" y="222" type="line"/>
      <point x="45" y="173" type="line" smooth="yes"/>
      <point x="22" y="84"/>
      <point x="26" y="-5"/>
      <point x="137" y="-5" type="curve" smooth="yes"/>
      <point x="240" y="-5"/>
      <point x="299" y="88"/>
      <point x="320" y="172" type="curve" smooth="yes"/>
      <point x="342" y="259" type="line" smooth="yes"/>
      <point x="365" y="349"/>
      <point x="360" y="436"/>
      <point x="247" y="436" type="curve" smooth="yes"/>
      <point x="224" y="436"/>
      <point x="201" y="430"/>
      <point x="178" y="418" type="curve"/>
      <point x="224" y="602" type="line"/>
      <point x="410" y="602" type="line"/>
    </contour>
  </outline>
</glyph>
<glyph name="eight" format="1">
  <advance width="352"/>
  <unicode hex="0038"/>
  <outline>
    <contour>
      <point x="235" y="39"/>
      <point x="281" y="112"/>
      <point x="298" y="179" type="curve" smooth="yes"/>
      <point x="316" y="251"/>
      <point x="316" y="327"/>
      <point x="229" y="327" type="curve" smooth="yes"/>
      <point x="148" y="327"/>
      <point x="104" y="246"/>
      <point x="87" y="179" type="curve" smooth="yes"/>
      <point x="70" y="111"/>
      <point x="77" y="39"/>
      <point x="157" y="39" type="curve" smooth="yes"/>
    </contour>
    <contour>
      <point x="155" y="422"/>
      <point x="149" y="343"/>
      <point x="233" y="343" type="curve" smooth="yes"/>
      <point x="319" y="343"/>
      <point x="350" y="420"/>
      <point x="367" y="489" type="curve" smooth="yes"/>
      <point x="384" y="555"/>
      <point x="387" y="633"/>
      <point x="305" y="633" type="curve" smooth="yes"/>
      <point x="222" y="633"/>
      <point x="188" y="555"/>
      <point x="171" y="489" type="curve" smooth="yes"/>
    </contour>
    <contour>
      <point x="373" y="435"/>
      <point x="351" y="362"/>
      <point x="283" y="335" type="curve"/>
      <point x="338" y="309"/>
      <point x="331" y="239"/>
      <point x="317" y="181" type="curve" smooth="yes"/>
      <point x="297" y="103"/>
      <point x="243" y="21"/>
      <point x="153" y="21" type="curve" smooth="yes"/>
      <point x="59" y="21"/>
      <point x="49" y="100"/>
      <point x="70" y="181" type="curve" smooth="yes"/>
      <point x="84" y="237"/>
      <point x="118" y="306"/>
      <point x="177" y="335" type="curve"/>
      <point x="130" y="367"/>
      <point x="140" y="434"/>
      <point x="154" y="492" type="curve" smooth="yes"/>
      <point x="174" y="570"/>
      <point x="216" y="651"/>
      <point x="310" y="651" type="curve" smooth="yes"/>
      <point x="402" y="651"/>
      <point x="406" y="569"/>
      <point x="387" y="492" type="curve" smooth="yes"/>
    </contour>
    <contour>
      <point x="437" y="583"/>
      <point x="431" y="679"/>
      <point x="317" y="679" type="curve" smooth="yes"/>
      <point x="201" y="679"/>
      <point x="150" y="584"/>
      <point x="127" y="492" type="curve" smooth="yes"/>
      <point x="114" y="438"/>
      <point x="102" y="377"/>
      <point x="133" y="335" type="curve"/>
      <point x="84" y="295"/>
      <point x="55" y="232"/>
      <point x="43" y="181" type="curve" smooth="yes"/>
      <point x="19" y="86"/>
      <point x="31" y="-6"/>
      <point x="146" y="-6" type="curve" smooth="yes"/>
      <point x="256" y="-6"/>
      <point x="322" y="89"/>
      <point x="345" y="181" type="curve" smooth="yes"/>
      <point x="358" y="233"/>
      <point x="364" y="297"/>
      <point x="332" y="336" type="curve"/>
      <point x="381" y="377"/>
      <point x="402" y="442"/>
      <point x="414" y="492" type="curve" smooth="yes"/>
    </contour>
    <contour>
      <point x="212" y="542"/>
      <point x="238" y="605"/>
      <point x="298" y="605" type="curve" smooth="yes"/>
      <point x="357" y="605"/>
      <point x="354" y="542"/>
      <point x="340" y="489" type="curve" smooth="yes"/>
      <point x="326" y="433"/>
      <point x="302" y="371"/>
      <point x="240" y="371" type="curve" smooth="yes"/>
      <point x="180" y="371"/>
      <point x="185" y="434"/>
      <point x="198" y="489" type="curve" smooth="yes"/>
    </contour>
    <contour>
      <point x="105" y="67"/>
      <point x="102" y="125"/>
      <point x="115" y="179" type="curve" smooth="yes"/>
      <point x="129" y="233"/>
      <point x="162" y="299"/>
      <point x="222" y="299" type="curve" smooth="yes"/>
      <point x="286" y="299"/>
      <point x="285" y="237"/>
      <point x="270" y="179" type="curve" smooth="yes"/>
      <point x="257" y="125"/>
      <point x="222" y="67"/>
      <point x="164" y="67" type="curve" smooth="yes"/>
    </contour>
  </outline>
</glyph>
<glyph name="nine" format="1">
  <advance width="328"/>
  <unicode hex="0039"/>
  <outline>
    <contour>
      <point x="361" y="514" type="line" smooth="yes"/>
      <point x="376" y="575"/>
      <point x="368" y="633"/>
      <point x="297" y="633" type="curve" smooth="yes"/>
      <point x="226" y="633"/>
      <point x="185" y="551"/>
      <point x="170" y="493" type="curve" smooth="yes"/>
      <point x="149" y="406" type="line" smooth="yes"/>
      <point x="133" y="343"/>
      <point x="129" y="275"/>
      <point x="207" y="275" type="curve" smooth="yes"/>
      <point x="272" y="275"/>
      <point x="317" y="339"/>
      <point x="331" y="396" type="curve" smooth="yes"/>
    </contour>
    <contour>
      <point x="383" y="651"/>
      <point x="399" y="592"/>
      <point x="381" y="519" type="curve" smooth="yes"/>
      <point x="304" y="210" type="line" smooth="yes"/>
      <point x="284" y="131"/>
      <point x="239" y="23"/>
      <point x="139" y="23" type="curve" smooth="yes"/>
      <point x="59" y="23"/>
      <point x="50" y="86"/>
      <point x="67" y="156" type="curve" smooth="yes"/>
      <point x="73" y="178" type="line"/>
      <point x="92" y="178" type="line"/>
      <point x="75" y="115"/>
      <point x="59" y="40"/>
      <point x="143" y="40" type="curve" smooth="yes"/>
      <point x="228" y="40"/>
      <point x="269" y="145"/>
      <point x="285" y="210" type="curve" smooth="yes"/>
      <point x="312" y="317" type="line"/>
      <point x="286" y="281"/>
      <point x="242" y="257"/>
      <point x="203" y="257" type="curve" smooth="yes"/>
      <point x="113" y="257"/>
      <point x="112" y="331"/>
      <point x="131" y="406" type="curve" smooth="yes"/>
      <point x="154" y="498" type="line" smooth="yes"/>
      <point x="171" y="566"/>
      <point x="222" y="651"/>
      <point x="302" y="651" type="curve" smooth="yes"/>
    </contour>
    <contour>
      <point x="208" y="679"/>
      <point x="147" y="578"/>
      <point x="127" y="498" type="curve" smooth="yes"/>
      <point x="104" y="406" type="line" smooth="yes"/>
      <point x="82" y="317"/>
      <point x="83" y="230"/>
      <point x="196" y="230" type="curve" smooth="yes"/>
      <point x="219" y="230"/>
      <point x="245" y="237"/>
      <point x="267" y="248" type="curve"/>
      <point x="258" y="210" type="line" smooth="yes"/>
      <point x="244" y="156"/>
      <point x="212" y="68"/>
      <point x="150" y="68" type="curve" smooth="yes"/>
      <point x="92" y="68"/>
      <point x="109" y="142"/>
      <point x="126" y="206" type="curve"/>
      <point x="53" y="206" type="line"/>
      <point x="40" y="156" type="line" smooth="yes"/>
      <point x="19" y="72"/>
      <point x="31" y="-5"/>
      <point x="132" y="-5" type="curve" smooth="yes"/>
      <point x="256" y="-5"/>
      <point x="308" y="119"/>
      <point x="331" y="210" type="curve" smooth="yes"/>
      <point x="408" y="519" type="line" smooth="yes"/>
      <point x="430" y="608"/>
      <point x="410" y="679"/>
      <point x="309" y="679" type="curve" smooth="yes"/>
    </contour>
    <contour>
      <point x="304" y="396" type="line" smooth="yes"/>
      <point x="293" y="352"/>
      <point x="260" y="302"/>
      <point x="214" y="302" type="curve" smooth="yes"/>
      <point x="159" y="302"/>
      <point x="163" y="355"/>
      <point x="176" y="406" type="curve" smooth="yes"/>
      <point x="197" y="493" type="line" smooth="yes"/>
      <point x="209" y="540"/>
      <point x="240" y="605"/>
      <point x="290" y="605" type="curve" smooth="yes"/>
      <point x="340" y="605"/>
      <point x="345" y="561"/>
      <point x="334" y="514" type="curve" smooth="yes"/>
    </contour>
  </outline>
</glyph>
<glyph name="colon" format="1">
  <advance width="133"/>
  <unicode hex="003A"/>
  <outline>
    <contour>
      <point x="80" y="202" type="line"/>
      <point x="98" y="202" type="line"/>
      <point x="88" y="161" type="line"/>
      <point x="70" y="161" type="line"/>
    </contour>
    <contour>
      <point x="167" y="478" type="line"/>
      <point x="156" y="437" type="line"/>
      <point x="138" y="437" type="line"/>
      <point x="149" y="478" type="line"/>
    </contour>
    <contour>
      <point x="127" y="505" type="line"/>
      <point x="104" y="410" type="line"/>
      <point x="178" y="410" type="line"/>
      <point x="201" y="505" type="line"/>
    </contour>
    <contour>
      <point x="35" y="133" type="line"/>
      <point x="109" y="133" type="line"/>
      <point x="133" y="230" type="line"/>
      <point x="59" y="230" type="line"/>
    </contour>
  </outline>
</glyph>
<glyph name="less" format="1">
  <advance width="257"/>
  <unicode hex="003C"/>
  <outline>
    <contour>
      <point x="345" y="647" type="line"/>
      <point x="144" y="337" type="line"/>
      <point x="190" y="28" type="line"/>
      <point x="170" y="28" type="line"/>
      <point x="124" y="337" type="line"/>
      <point x="325" y="647" type="line"/>
    </contour>
    <contour>
      <point x="314" y="674" type="line"/>
      <point x="95" y="337" type="line"/>
      <point x="146" y="0" type="line"/>
      <point x="224" y="0" type="line"/>
      <point x="174" y="337" type="line"/>
      <point x="392" y="674" type="line"/>
    </contour>
  </outline>
</glyph>
<glyph name="question" format="1">
  <advance width="346"/>
  <unicode hex="003F"/>
  <outline>
    <contour>
      <point x="137" y="124" type="line"/>
      <point x="210" y="124" type="line"/>
      <point x="220" y="163" type="line" smooth="yes"/>
      <point x="235" y="224"/>
      <point x="247" y="259"/>
      <point x="293" y="305" type="curve" smooth="yes"/>
      <point x="352" y="361"/>
      <point x="404" y="421"/>
      <point x="425" y="502" type="curve" smooth="yes"/>
      <point x="449" y="598"/>
      <point x="430" y="680"/>
      <point x="319" y="680" type="curve" smooth="yes"/>
      <point x="198" y="680"/>
      <point x="134" y="548"/>
      <point x="108" y="443" type="curve"/>
      <point x="181" y="443" type="line"/>
      <point x="198" y="512"/>
      <point x="237" y="606"/>
      <point x="300" y="606" type="curve" smooth="yes"/>
      <point x="362" y="606"/>
      <point x="364" y="556"/>
      <point x="350" y="498" type="curve" smooth="yes"/>
      <point x="335" y="439"/>
      <point x="308" y="411"/>
      <point x="277" y="380" type="curve"/>
      <point x="277" y="381" type="line"/>
      <point x="229" y="332"/>
      <point x="185" y="316"/>
      <point x="148" y="167" type="curve" smooth="yes"/>
    </contour>
    <contour>
      <point x="180" y="0" type="line"/>
      <point x="200" y="84" type="line"/>
      <point x="127" y="84" type="line"/>
      <point x="107" y="0" type="line"/>
    </contour>
    <contour>
      <point x="159" y="28" type="line"/>
      <point x="140" y="28" type="line"/>
      <point x="148" y="57" type="line"/>
      <point x="167" y="57" type="line"/>
    </contour>
    <contour>
      <point x="171" y="152" type="line"/>
      <point x="175" y="167" type="line" smooth="yes"/>
      <point x="226" y="372"/>
      <point x="340" y="347"/>
      <point x="378" y="498" type="curve" smooth="yes"/>
      <point x="396" y="570"/>
      <point x="391" y="634"/>
      <point x="307" y="634" type="curve" smooth="yes"/>
      <point x="221" y="634"/>
      <point x="177" y="539"/>
      <point x="160" y="470" type="curve"/>
      <point x="143" y="470" type="line"/>
      <point x="163" y="551"/>
      <point x="213" y="652"/>
      <point x="312" y="652" type="curve" smooth="yes"/>
      <point x="403" y="652"/>
      <point x="417" y="583"/>
      <point x="397" y="502" type="curve" smooth="yes"/>
      <point x="377" y="424"/>
      <point x="337" y="380"/>
      <point x="276" y="322" type="curve"/>
      <point x="276" y="322" type="line"/>
      <point x="217" y="258"/>
      <point x="202" y="200"/>
      <point x="190" y="152" type="curve"/>
    </contour>
  </outline>
</glyph>
<glyph name="at" format="1">
  <advance width="667"/>
  <unicode hex="0040"/>
  <outline>
    <contour>
      <point x="399" y="180"/>
      <point x="435" y="290"/>
      <point x="463" y="354" type="curve" smooth="yes"/>
      <point x="473" y="376"/>
      <point x="484" y="397"/>
      <point x="490" y="419" type="curve" smooth="yes"/>
      <point x="500" y="461"/>
      <point x="491" y="490"/>
      <point x="446" y="490" type="curve" smooth="yes"/>
      <point x="368" y="490"/>
      <point x="278" y="341"/>
      <point x="262" y="277" type="curve" smooth="yes"/>
      <point x="250" y="231"/>
      <point x="258" y="180"/>
      <point x="312" y="180" type="curve" smooth="yes"/>
    </contour>
    <contour>
      <point x="570" y="111" type="line"/>
      <point x="496" y="67"/>
      <point x="416" y="42"/>
      <point x="339" y="42" type="curve" smooth="yes"/>
      <point x="182" y="42"/>
      <point x="79" y="141"/>
      <point x="120" y="306" type="curve" smooth="yes"/>
      <point x="164" y="483"/>
      <point x="323" y="625"/>
      <point x="505" y="625" type="curve" smooth="yes"/>
      <point x="647" y="625"/>
      <point x="706" y="529"/>
      <point x="672" y="391" type="curve" smooth="yes"/>
      <point x="642" y="271"/>
      <point x="549" y="149"/>
      <point x="415" y="149" type="curve" smooth="yes"/>
      <point x="393" y="149"/>
      <point x="386" y="170"/>
      <point x="390" y="189" type="curve"/>
      <point x="367" y="168"/>
      <point x="338" y="161"/>
      <point x="312" y="161" type="curve" smooth="yes"/>
      <point x="243" y="161"/>
      <point x="226" y="213"/>
      <point x="241" y="276" type="curve" smooth="yes"/>
      <point x="265" y="370"/>
      <point x="357" y="509"/>
      <point x="467" y="509" type="curve" smooth="yes"/>
      <point x="495" y="509"/>
      <point x="514" y="487"/>
      <point x="513" y="461" type="curve"/>
      <point x="532" y="500" type="line"/>
      <point x="552" y="500" type="line"/>
      <point x="525" y="444"/>
      <point x="422" y="242"/>
      <point x="411" y="197" type="curve" smooth="yes"/>
      <point x="408" y="186"/>
      <point x="404" y="166"/>
      <point x="421" y="166" type="curve" smooth="yes"/>
      <point x="544" y="166"/>
      <point x="626" y="287"/>
      <point x="653" y="394" type="curve" smooth="yes"/>
      <point x="685" y="523"/>
      <point x="629" y="608"/>
      <point x="498" y="608" type="curve" smooth="yes"/>
      <point x="331" y="608"/>
      <point x="179" y="472"/>
      <point x="139" y="309" type="curve" smooth="yes"/>
      <point x="100" y="153"/>
      <point x="193" y="60"/>
      <point x="343" y="60" type="curve" smooth="yes"/>
      <point x="411" y="60"/>
      <point x="486" y="82"/>
      <point x="553" y="120" type="curve"/>
    </contour>
    <contour>
      <point x="559" y="152" type="line"/>
      <point x="488" y="111"/>
      <point x="413" y="87"/>
      <point x="350" y="87" type="curve" smooth="yes"/>
      <point x="215" y="87"/>
      <point x="132" y="171"/>
      <point x="167" y="309" type="curve" smooth="yes"/>
      <point x="203" y="457"/>
      <point x="340" y="580"/>
      <point x="491" y="580" type="curve" smooth="yes"/>
      <point x="605" y="580"/>
      <point x="654" y="506"/>
      <point x="626" y="394" type="curve" smooth="yes"/>
      <point x="603" y="301"/>
      <point x="533" y="196"/>
      <point x="431" y="194" type="curve"/>
      <point x="436" y="194"/>
      <point x="438" y="197"/>
      <point x="438" y="197" type="curve"/>
      <point x="446" y="230"/>
      <point x="511" y="361"/>
      <point x="551" y="441" type="curve" smooth="yes"/>
      <point x="593" y="527" type="line"/>
      <point x="517" y="527" type="line"/>
      <point x="517" y="526"/>
      <point x="515" y="523"/>
      <point x="515" y="523" type="curve"/>
      <point x="505" y="531"/>
      <point x="490" y="536"/>
      <point x="474" y="536" type="curve" smooth="yes"/>
      <point x="346" y="536"/>
      <point x="240" y="381"/>
      <point x="214" y="276" type="curve" smooth="yes"/>
      <point x="195" y="198"/>
      <point x="216" y="133"/>
      <point x="305" y="133" type="curve" smooth="yes"/>
      <point x="324" y="133"/>
      <point x="347" y="137"/>
      <point x="366" y="145" type="curve"/>
      <point x="373" y="131"/>
      <point x="388" y="121"/>
      <point x="408" y="121" type="curve" smooth="yes"/>
      <point x="561" y="121"/>
      <point x="666" y="257"/>
      <point x="699" y="391" type="curve" smooth="yes"/>
      <point x="738" y="546"/>
      <point x="671" y="653"/>
      <point x="512" y="653" type="curve" smooth="yes"/>
      <point x="313" y="653"/>
      <point x="140" y="499"/>
      <point x="92" y="306" type="curve" smooth="yes"/>
      <point x="46" y="124"/>
      <point x="161" y="15"/>
      <point x="332" y="15" type="curve" smooth="yes"/>
      <point x="415" y="15"/>
      <point x="517" y="51"/>
      <point x="624" y="115" type="curve"/>
    </contour>
    <contour>
      <point x="285" y="208"/>
      <point x="280" y="243"/>
      <point x="289" y="277" type="curve" smooth="yes"/>
      <point x="302" y="332"/>
      <point x="377" y="463"/>
      <point x="439" y="463" type="curve" smooth="yes"/>
      <point x="464" y="463"/>
      <point x="469" y="444"/>
      <point x="463" y="419" type="curve" smooth="yes"/>
      <point x="459" y="402"/>
      <point x="451" y="388"/>
      <point x="445" y="374" type="curve" smooth="yes"/>
      <point x="439" y="361" type="line"/>
      <point x="426" y="334" type="line"/>
      <point x="403" y="280"/>
      <point x="372" y="208"/>
      <point x="319" y="208" type="curve" smooth="yes"/>
    </contour>
  </outline>
</glyph>
<glyph name="G" format="1">
  <advance width="391"/>
  <unicode hex="0047"/>
  <outline>
    <contour>
      <point x="79" y="21"/>
      <point x="54" y="94"/>
      <point x="76" y="182" type="curve" smooth="yes"/>
      <point x="153" y="493" type="line" smooth="yes"/>
      <point x="175" y="581"/>
      <point x="238" y="653"/>
      <point x="333" y="653" type="curve" smooth="yes"/>
      <point x="428" y="653"/>
      <point x="448" y="579"/>
      <point x="423" y="481" type="curve"/>
      <point x="405" y="481" type="line"/>
      <point x="425" y="559"/>
      <point x="417" y="636"/>
      <point x="329" y="636" type="curve" smooth="yes"/>
      <point x="240" y="636"/>
      <point x="189" y="564"/>
      <point x="169" y="484" type="curve" smooth="yes"/>
      <point x="94" y="182" type="line" smooth="yes"/>
      <point x="75" y="105"/>
      <point x="94" y="39"/>
      <point x="178" y="39" type="curve" smooth="yes"/>
      <point x="260" y="39"/>
      <point x="315" y="108"/>
      <point x="334" y="182" type="curve" smooth="yes"/>
      <point x="370" y="327" type="line"/>
      <point x="261" y="327" type="line"/>
      <point x="265" y="344" type="line"/>
      <point x="392" y="344" type="line"/>
      <point x="352" y="182" type="line" smooth="yes"/>
      <point x="330" y="96"/>
      <point x="269" y="21"/>
      <point x="174" y="21" type="curve" smooth="yes"/>
    </contour>
    <contour>
      <point x="281" y="-6"/>
      <point x="354" y="81"/>
      <point x="379" y="182" type="curve" smooth="yes"/>
      <point x="426" y="372" type="line"/>
      <point x="245" y="372" type="line"/>
      <point x="227" y="299" type="line"/>
      <point x="335" y="299" type="line"/>
      <point x="306" y="182" type="line" smooth="yes"/>
      <point x="291" y="122"/>
      <point x="248" y="66"/>
      <point x="185" y="66" type="curve" smooth="yes"/>
      <point x="120" y="66"/>
      <point x="105" y="119"/>
      <point x="121" y="182" type="curve" smooth="yes"/>
      <point x="196" y="484" type="line" smooth="yes"/>
      <point x="212" y="549"/>
      <point x="253" y="608"/>
      <point x="322" y="608" type="curve" smooth="yes"/>
      <point x="396" y="608"/>
      <point x="391" y="534"/>
      <point x="371" y="457" type="curve"/>
      <point x="444" y="457" type="line"/>
      <point x="479" y="594"/>
      <point x="465" y="681"/>
      <point x="340" y="681" type="curve" smooth="yes"/>
      <point x="225" y="681"/>
      <point x="151" y="597"/>
      <point x="125" y="493" type="curve" smooth="yes"/>
      <point x="48" y="182" type="line" smooth="yes"/>
      <point x="22" y="79"/>
      <point x="52" y="-6"/>
      <point x="167" y="-6" type="curve" smooth="yes"/>
    </contour>
  </outline>
</glyph>
<glyph name="K" format="1">
  <advance width="334"/>
  <unicode hex="004B"/>
  <outline>
    <contour>
      <point x="423" y="647" type="line"/>
      <point x="192" y="361" type="line"/>
      <point x="284" y="28" type="line"/>
      <point x="263" y="28" type="line"/>
      <point x="175" y="341" type="line"/>
      <point x="118" y="275" type="line"/>
      <point x="56" y="28" type="line"/>
      <point x="37" y="28" type="line"/>
      <point x="192" y="647" type="line"/>
      <point x="211" y="647" type="line"/>
      <point x="126" y="307" type="line"/>
      <point x="401" y="647" type="line"/>
    </contour>
    <contour>
      <point x="479" y="675" type="line"/>
      <point x="392" y="675" type="line"/>
      <point x="178" y="408" type="line"/>
      <point x="245" y="675" type="line"/>
      <point x="172" y="675" type="line"/>
      <point x="4" y="0" type="line"/>
      <point x="77" y="0" type="line"/>
      <point x="143" y="268" type="line"/>
      <point x="159" y="287" type="line"/>
      <point x="240" y="0" type="line"/>
      <point x="325" y="0" type="line"/>
      <point x="222" y="360" type="line"/>
    </contour>
  </outline>
</glyph>
<glyph name="L" format="1">
  <advance width="281"/>
  <unicode hex="004C"/>
  <outline>
    <contour>
      <point x="30" y="28" type="line"/>
      <point x="185" y="647" type="line"/>
      <point x="203" y="647" type="line"/>
      <point x="53" y="45" type="line"/>
      <point x="206" y="45" type="line"/>
      <point x="201" y="28" type="line"/>
    </contour>
    <contour>
      <point x="222" y="0" type="line"/>
      <point x="240" y="73" type="line"/>
      <point x="87" y="73" type="line"/>
      <point x="237" y="674" type="line"/>
      <point x="165" y="674" type="line"/>
      <point x="-3" y="0" type="line"/>
    </contour>
  </outline>
</glyph>
<glyph name="M" format="1">
  <advance width="427"/>
  <unicode hex="004D"/>
  <outline>
    <contour>
      <point x="52" y="28" type="line"/>
      <point x="34" y="28" type="line"/>
      <point x="189" y="647" type="line"/>
      <point x="205" y="647" type="line"/>
      <point x="208" y="74" type="line"/>
      <point x="498" y="647" type="line"/>
      <point x="515" y="647" type="line"/>
      <point x="360" y="28" type="line"/>
      <point x="341" y="28" type="line"/>
      <point x="475" y="563" type="line"/>
      <point x="206" y="28" type="line"/>
      <point x="189" y="28" type="line"/>
      <point x="186" y="562" type="line"/>
    </contour>
    <contour>
      <point x="74" y="0" type="line"/>
      <point x="159" y="343" type="line"/>
      <point x="162" y="0" type="line"/>
      <point x="221" y="0" type="line"/>
      <point x="394" y="348" type="line"/>
      <point x="308" y="0" type="line"/>
      <point x="381" y="0" type="line"/>
      <point x="549" y="674" type="line"/>
      <point x="484" y="674" type="line"/>
      <point x="236" y="186" type="line"/>
      <point x="233" y="674" type="line"/>
      <point x="168" y="674" type="line"/>
      <point x="0" y="0" type="line"/>
    </contour>
  </outline>
</glyph>
<glyph name="P" format="1">
  <advance width="343"/>
  <unicode hex="0050"/>
  <outline>
    <contour>
      <point x="133" y="344" type="line"/>
      <point x="209" y="344" type="line" smooth="yes"/>
      <point x="306" y="344"/>
      <point x="359" y="394"/>
      <point x="382" y="488" type="curve" smooth="yes"/>
      <point x="405" y="579"/>
      <point x="379" y="628"/>
      <point x="284" y="628" type="curve" smooth="yes"/>
      <point x="204" y="628" type="line"/>
    </contour>
    <contour>
      <point x="54" y="28" type="line"/>
      <point x="37" y="28" type="line"/>
      <point x="192" y="647" type="line"/>
      <point x="299" y="647" type="line" smooth="yes"/>
      <point x="400" y="647"/>
      <point x="424" y="581"/>
      <point x="401" y="488" type="curve" smooth="yes"/>
      <point x="360" y="321"/>
      <point x="262" y="326"/>
      <point x="129" y="326" type="curve"/>
    </contour>
    <contour>
      <point x="150" y="298" type="line"/>
      <point x="285" y="298"/>
      <point x="385" y="316"/>
      <point x="428" y="488" type="curve" smooth="yes"/>
      <point x="456" y="598"/>
      <point x="427" y="674"/>
      <point x="306" y="674" type="curve" smooth="yes"/>
      <point x="171" y="674" type="line"/>
      <point x="3" y="0" type="line"/>
      <point x="76" y="0" type="line"/>
    </contour>
    <contour>
      <point x="225" y="601" type="line"/>
      <point x="277" y="601" type="line" smooth="yes"/>
      <point x="353" y="601"/>
      <point x="373" y="561"/>
      <point x="355" y="488" type="curve" smooth="yes"/>
      <point x="336" y="412"/>
      <point x="294" y="372"/>
      <point x="216" y="372" type="curve" smooth="yes"/>
      <point x="168" y="372" type="line"/>
    </contour>
  </outline>
</glyph>
<glyph name="bracketleft" format="1">
  <advance width="196"/>
  <unicode hex="005B"/>
  <outline>
    <contour>
      <point x="297" y="647" type="line"/>
      <point x="292" y="629" type="line"/>
      <point x="213" y="629" type="line"/>
      <point x="68" y="45" type="line"/>
      <point x="147" y="45" type="line"/>
      <point x="142" y="28" type="line"/>
      <point x="46" y="28" type="line"/>
      <point x="201" y="647" type="line"/>
    </contour>
    <contour>
      <point x="180" y="674" type="line"/>
      <point x="12" y="0" type="line"/>
      <point x="164" y="0" type="line"/>
      <point x="182" y="73" type="line"/>
      <point x="103" y="73" type="line"/>
      <point x="235" y="602" type="line"/>
      <point x="314" y="602" type="line"/>
      <point x="332" y="674" type="line"/>
    </contour>
  </outline>
</glyph>
<glyph name="backslash" format="1">
  <advance width="400"/>
  <unicode hex="005C"/>
  <outline>
    <contour>
      <point x="318" y="28" type="line"/>
      <point x="298" y="28" type="line"/>
      <point x="206" y="647" type="line"/>
      <point x="225" y="647" type="line"/>
    </contour>
    <contour>
      <point x="250" y="674" type="line"/>
      <point x="172" y="674" type="line"/>
      <point x="273" y="0" type="line"/>
      <point x="352" y="0" type="line"/>
    </contour>
  </outline>
</glyph>
<glyph name="asciicircum" format="1">
  <advance width="380"/>
  <unicode hex="005E"/>
  <outline>
    <contour>
      <point x="172" y="609" type="line"/>
      <point x="226" y="637"/>
      <point x="281" y="666"/>
      <point x="335" y="694" type="curve"/>
      <point x="454" y="609" type="line"/>
      <point x="450" y="591" type="line"/>
      <point x="331" y="678" type="line"/>
      <point x="168" y="591" type="line"/>
    </contour>
    <contour>
      <point x="127" y="541" type="line"/>
      <point x="178" y="567"/>
      <point x="266" y="615"/>
      <point x="323" y="646" type="curve"/>
      <point x="465" y="541" type="line"/>
      <point x="486" y="624" type="line"/>
      <point x="343" y="727" type="line"/>
      <point x="148" y="624" type="line"/>
    </contour>
  </outline>
</glyph>
<glyph name="b" format="1">
  <advance width="349"/>
  <unicode hex="0062"/>
  <outline>
    <contour>
      <point x="151" y="46" type="line" smooth="yes"/>
      <point x="244" y="46"/>
      <point x="283" y="102"/>
      <point x="304" y="186" type="curve" smooth="yes"/>
      <point x="326" y="274"/>
      <point x="307" y="327"/>
      <point x="214" y="327" type="curve" smooth="yes"/>
      <point x="130" y="327" type="line"/>
      <point x="60" y="46" type="line"/>
    </contour>
    <contour>
      <point x="205" y="629" type="line"/>
      <point x="134" y="344" type="line"/>
      <point x="210" y="344" type="line" smooth="yes"/>
      <point x="300" y="344"/>
      <point x="348" y="405"/>
      <point x="369" y="488" type="curve" smooth="yes"/>
      <point x="391" y="576"/>
      <point x="365" y="629"/>
      <point x="274" y="629" type="curve" smooth="yes"/>
    </contour>
    <contour>
      <point x="371" y="423"/>
      <point x="338" y="363"/>
      <point x="267" y="338" type="curve"/>
      <point x="335" y="323"/>
      <point x="340" y="253"/>
      <point x="323" y="186" type="curve" smooth="yes"/>
      <point x="299" y="92"/>
      <point x="252" y="28"/>
      <point x="149" y="28" type="curve" smooth="yes"/>
      <point x="36" y="28" type="line"/>
      <point x="191" y="647" type="line"/>
      <point x="277" y="647" type="line" smooth="yes"/>
      <point x="382" y="647"/>
      <point x="413" y="591"/>
      <point x="387" y="488" type="curve" smooth="yes"/>
    </contour>
    <contour>
      <point x="445" y="608"/>
      <point x="409" y="674"/>
      <point x="284" y="674" type="curve" smooth="yes"/>
      <point x="171" y="674" type="line"/>
      <point x="3" y="0" type="line"/>
      <point x="143" y="0" type="line" smooth="yes"/>
      <point x="267" y="0"/>
      <point x="323" y="75"/>
      <point x="351" y="186" type="curve" smooth="yes"/>
      <point x="366" y="246"/>
      <point x="365" y="308"/>
      <point x="326" y="342" type="curve"/>
      <point x="376" y="377"/>
      <point x="401" y="431"/>
      <point x="415" y="488" type="curve" smooth="yes"/>
    </contour>
    <contour>
      <point x="226" y="602" type="line"/>
      <point x="268" y="602" type="line" smooth="yes"/>
      <point x="340" y="602"/>
      <point x="359" y="558"/>
      <point x="341" y="488" type="curve" smooth="yes"/>
      <point x="324" y="421"/>
      <point x="287" y="372"/>
      <point x="217" y="372" type="curve" smooth="yes"/>
      <point x="168" y="372" type="line"/>
    </contour>
    <contour>
      <point x="94" y="73" type="line"/>
      <point x="150" y="299" type="line"/>
      <point x="207" y="299" type="line" smooth="yes"/>
      <point x="280" y="299"/>
      <point x="293" y="256"/>
      <point x="276" y="186" type="curve" smooth="yes"/>
      <point x="259" y="118"/>
      <point x="229" y="73"/>
      <point x="158" y="73" type="curve" smooth="yes"/>
    </contour>
  </outline>
</glyph>
<glyph name="d" format="1">
  <advance width="378"/>
  <unicode hex="0064"/>
  <outline>
    <contour>
      <point x="60" y="45" type="line"/>
      <point x="152" y="45" type="line" smooth="yes"/>
      <point x="247" y="45"/>
      <point x="297" y="111"/>
      <point x="319" y="197" type="curve" smooth="yes"/>
      <point x="388" y="477" type="line" smooth="yes"/>
      <point x="410" y="563"/>
      <point x="392" y="629"/>
      <point x="297" y="629" type="curve" smooth="yes"/>
      <point x="205" y="629" type="line"/>
    </contour>
    <contour>
      <point x="38" y="28" type="line"/>
      <point x="193" y="647" type="line"/>
      <point x="309" y="647" type="line" smooth="yes"/>
      <point x="411" y="647"/>
      <point x="430" y="574"/>
      <point x="407" y="482" type="curve" smooth="yes"/>
      <point x="334" y="192" type="line" smooth="yes"/>
      <point x="311" y="98"/>
      <point x="257" y="28"/>
      <point x="154" y="28" type="curve" smooth="yes"/>
    </contour>
    <contour>
      <point x="148" y="0" type="line" smooth="yes"/>
      <point x="271" y="0"/>
      <point x="335" y="83"/>
      <point x="362" y="192" type="curve" smooth="yes"/>
      <point x="435" y="482" type="line" smooth="yes"/>
      <point x="462" y="590"/>
      <point x="438" y="674"/>
      <point x="316" y="674" type="curve" smooth="yes"/>
      <point x="172" y="674" type="line"/>
      <point x="4" y="0" type="line"/>
    </contour>
    <contour>
      <point x="95" y="73" type="line"/>
      <point x="227" y="602" type="line"/>
      <point x="291" y="602" type="line" smooth="yes"/>
      <point x="366" y="602"/>
      <point x="378" y="547"/>
      <point x="360" y="477" type="curve" smooth="yes"/>
      <point x="291" y="197" type="line" smooth="yes"/>
      <point x="273" y="127"/>
      <point x="234" y="73"/>
      <point x="159" y="73" type="curve" smooth="yes"/>
    </contour>
  </outline>
</glyph>
<glyph name="f" format="1">
  <advance width="310"/>
  <unicode hex="0066"/>
  <outline>
    <contour>
      <point x="397" y="629" type="line"/>
      <point x="200" y="629" type="line"/>
      <point x="129" y="344" type="line"/>
      <point x="261" y="344" type="line"/>
      <point x="257" y="327" type="line"/>
      <point x="125" y="327" type="line"/>
      <point x="50" y="28" type="line"/>
      <point x="33" y="28" type="line"/>
      <point x="187" y="647" type="line"/>
      <point x="402" y="647" type="line"/>
    </contour>
    <contour>
      <point x="419" y="602" type="line"/>
      <point x="437" y="674" type="line"/>
      <point x="167" y="674" type="line"/>
      <point x="0" y="0" type="line"/>
      <point x="71" y="0" type="line"/>
      <point x="145" y="299" type="line"/>
      <point x="278" y="299" type="line"/>
      <point x="296" y="372" type="line"/>
      <point x="163" y="372" type="line"/>
      <point x="221" y="602" type="line"/>
    </contour>
  </outline>
</glyph>
<glyph name="bar" format="1">
  <advance width="109"/>
  <unicode hex="007C"/>
  <outline>
    <contour>
      <point x="45" y="28" type="line"/>
      <point x="201" y="653" type="line"/>
      <point x="219" y="653" type="line"/>
      <point x="63" y="28" type="line"/>
    </contour>
    <contour>
      <point x="84" y="0" type="line"/>
      <point x="253" y="681" type="line"/>
      <point x="181" y="681" type="line"/>
      <point x="12" y="0" type="line"/>
    </contour>
  </outline>
</glyph>
<glyph name="asciitilde" format="1">
  <advance width="320"/>
  <unicode hex="007E"/>
  <outline>
    <contour>
      <point x="347" y="330" type="line"/>
      <point x="330" y="324"/>
      <point x="312" y="318"/>
      <point x="296" y="318" type="curve" smooth="yes"/>
      <point x="249" y="318"/>
      <point x="225" y="357"/>
      <point x="182" y="357" type="curve" smooth="yes"/>
      <point x="162" y="357"/>
      <point x="142" y="348"/>
      <point x="125" y="334" type="curve"/>
      <point x="114" y="349" type="line"/>
      <point x="135" y="362"/>
      <point x="160" y="377"/>
      <point x="184" y="377" type="curve" smooth="yes"/>
      <point x="233" y="377"/>
      <point x="260" y="337"/>
      <point x="303" y="337" type="curve" smooth="yes"/>
      <point x="312" y="337"/>
      <point x="325" y="343"/>
      <point x="335" y="346" type="curve"/>
    </contour>
    <contour>
      <point x="349" y="381" type="line"/>
      <point x="333" y="372" type="line"/>
      <point x="324" y="368"/>
      <point x="314" y="365"/>
      <point x="310" y="365" type="curve" smooth="yes"/>
      <point x="295" y="365"/>
      <point x="280" y="373"/>
      <point x="264" y="381" type="curve"/>
      <point x="265" y="381" type="line"/>
      <point x="244" y="392"/>
      <point x="222" y="404"/>
      <point x="191" y="404" type="curve" smooth="yes"/>
      <point x="159" y="404"/>
      <point x="112" y="377"/>
      <point x="73" y="353" type="curve"/>
      <point x="115" y="296" type="line"/>
      <point x="141" y="316"/>
      <point x="163" y="330"/>
      <point x="175" y="330" type="curve" smooth="yes"/>
      <point x="190" y="330"/>
      <point x="203" y="321"/>
      <point x="218" y="313" type="curve"/>
      <point x="238" y="301"/>
      <point x="258" y="290"/>
      <point x="289" y="290" type="curve" smooth="yes"/>
      <point x="310" y="290"/>
      <point x="353" y="305"/>
      <point x="390" y="318" type="curve"/>
    </contour>
  </outline>
</glyph>
<glyph name="copyright" format="1">
  <advance width="751"/>
  <unicode hex="00A9"/>
  <outline>
    <contour>
      <point x="313" y="130"/>
      <point x="298" y="174"/>
      <point x="313" y="235" type="curve" smooth="yes"/>
      <point x="364" y="440" type="line" smooth="yes"/>
      <point x="379" y="500"/>
      <point x="417" y="544"/>
      <point x="480" y="544" type="curve" smooth="yes"/>
      <point x="543" y="544"/>
      <point x="559" y="499"/>
      <point x="544" y="440" type="curve" smooth="yes"/>
      <point x="541" y="427" type="line"/>
      <point x="524" y="427" type="line"/>
      <point x="536" y="477"/>
      <point x="536" y="528"/>
      <point x="476" y="528" type="curve" smooth="yes"/>
      <point x="424" y="528"/>
      <point x="393" y="486"/>
      <point x="381" y="440" type="curve" smooth="yes"/>
      <point x="330" y="235" type="line" smooth="yes"/>
      <point x="319" y="189"/>
      <point x="329" y="146"/>
      <point x="381" y="146" type="curve" smooth="yes"/>
      <point x="440" y="146"/>
      <point x="467" y="198"/>
      <point x="479" y="247" type="curve"/>
      <point x="496" y="247" type="line"/>
      <point x="480" y="184"/>
      <point x="449" y="130"/>
      <point x="377" y="130" type="curve" smooth="yes"/>
    </contour>
    <contour>
      <point x="99" y="177"/>
      <point x="194" y="45"/>
      <point x="358" y="45" type="curve" smooth="yes"/>
      <point x="521" y="45"/>
      <point x="685" y="176"/>
      <point x="726" y="340" type="curve" smooth="yes"/>
      <point x="767" y="503"/>
      <point x="666" y="633"/>
      <point x="504" y="633" type="curve" smooth="yes"/>
      <point x="341" y="633"/>
      <point x="180" y="502"/>
      <point x="139" y="340" type="curve" smooth="yes"/>
    </contour>
    <contour>
      <point x="165" y="511"/>
      <point x="337" y="649"/>
      <point x="508" y="649" type="curve" smooth="yes"/>
      <point x="679" y="649"/>
      <point x="784" y="511"/>
      <point x="741" y="340" type="curve" smooth="yes"/>
      <point x="699" y="169"/>
      <point x="525" y="30"/>
      <point x="354" y="30" type="curve" smooth="yes"/>
      <point x="184" y="30"/>
      <point x="80" y="170"/>
      <point x="122" y="340" type="curve" smooth="yes"/>
    </contour>
    <contour>
      <point x="49" y="155"/>
      <point x="161" y="3"/>
      <point x="347" y="3" type="curve" smooth="yes"/>
      <point x="533" y="3"/>
      <point x="723" y="153"/>
      <point x="769" y="340" type="curve" smooth="yes"/>
      <point x="816" y="526"/>
      <point x="701" y="677"/>
      <point x="515" y="677" type="curve" smooth="yes"/>
      <point x="328" y="677"/>
      <point x="142" y="526"/>
      <point x="95" y="340" type="curve" smooth="yes"/>
    </contour>
    <contour>
      <point x="203" y="487"/>
      <point x="350" y="605"/>
      <point x="497" y="605" type="curve" smooth="yes"/>
      <point x="644" y="605"/>
      <point x="735" y="488"/>
      <point x="698" y="340" type="curve" smooth="yes"/>
      <point x="661" y="192"/>
      <point x="513" y="73"/>
      <point x="365" y="73" type="curve" smooth="yes"/>
      <point x="217" y="73"/>
      <point x="130" y="193"/>
      <point x="166" y="340" type="curve" smooth="yes"/>
    </contour>
    <contour>
      <point x="464" y="103"/>
      <point x="507" y="181"/>
      <point x="530" y="275" type="curve"/>
      <point x="459" y="275" type="line"/>
      <point x="447" y="226"/>
      <point x="425" y="174"/>
      <point x="388" y="174" type="curve" smooth="yes"/>
      <point x="356" y="174"/>
      <point x="350" y="203"/>
      <point x="358" y="235" type="curve" smooth="yes"/>
      <point x="409" y="440" type="line" smooth="yes"/>
      <point x="417" y="471"/>
      <point x="437" y="501"/>
      <point x="469" y="501" type="curve" smooth="yes"/>
      <point x="507" y="501"/>
      <point x="502" y="449"/>
      <point x="490" y="399" type="curve"/>
      <point x="561" y="399" type="line"/>
      <point x="571" y="440" type="line" smooth="yes"/>
      <point x="590" y="514"/>
      <point x="570" y="571"/>
      <point x="487" y="571" type="curve" smooth="yes"/>
      <point x="404" y="571"/>
      <point x="355" y="515"/>
      <point x="336" y="440" type="curve" smooth="yes"/>
      <point x="285" y="235" type="line" smooth="yes"/>
      <point x="266" y="159"/>
      <point x="286" y="103"/>
      <point x="370" y="103" type="curve" smooth="yes"/>
    </contour>
  </outline>
</glyph>
<glyph name="guillemotleft" format="1">
  <advance width="486"/>
  <unicode hex="00AB"/>
  <outline>
    <contour>
      <point x="626" y="647" type="line"/>
      <point x="306" y="337" type="line"/>
      <point x="361" y="234"/>
      <point x="415" y="130"/>
      <point x="471" y="28" type="curve"/>
      <point x="450" y="28" type="line"/>
      <point x="285" y="337" type="line"/>
      <point x="604" y="647" type="line"/>
    </contour>
    <contour>
      <point x="472" y="647" type="line"/>
      <point x="151" y="337" type="line"/>
      <point x="207" y="234"/>
      <point x="261" y="129"/>
      <point x="317" y="28" type="curve"/>
      <point x="296" y="28" type="line"/>
      <point x="130" y="337" type="line"/>
      <point x="450" y="647" type="line"/>
    </contour>
    <contour>
      <point x="444" y="674" type="line"/>
      <point x="94" y="337" type="line"/>
      <point x="277" y="0" type="line"/>
      <point x="368" y="0" type="line"/>
      <point x="334" y="60"/>
      <point x="276" y="166"/>
      <point x="244" y="230" type="curve" smooth="yes"/>
      <point x="186" y="337" type="line"/>
      <point x="536" y="674" type="line"/>
    </contour>
    <contour>
      <point x="597" y="674" type="line"/>
      <point x="249" y="337" type="line"/>
      <point x="430" y="0" type="line"/>
      <point x="522" y="0" type="line"/>
      <point x="493" y="51"/>
      <point x="441" y="148"/>
      <point x="414" y="199" type="curve" smooth="yes"/>
      <point x="341" y="338" type="line"/>
      <point x="691" y="674" type="line"/>
    </contour>
  </outline>
</glyph>
<glyph name="registered" format="1">
  <advance width="751"/>
  <unicode hex="00AE"/>
  <outline>
    <contour>
      <point x="489" y="358"/>
      <point x="511" y="407"/>
      <point x="522" y="451" type="curve" smooth="yes"/>
      <point x="534" y="498"/>
      <point x="527" y="526"/>
      <point x="477" y="526" type="curve" smooth="yes"/>
      <point x="430" y="526" type="line"/>
      <point x="388" y="358" type="line"/>
      <point x="435" y="358" type="line" smooth="yes"/>
    </contour>
    <contour>
      <point x="528" y="415"/>
      <point x="508" y="374"/>
      <point x="472" y="351" type="curve"/>
      <point x="492" y="340"/>
      <point x="502" y="319"/>
      <point x="496" y="293" type="curve" smooth="yes"/>
      <point x="462" y="160" type="line"/>
      <point x="446" y="160" type="line"/>
      <point x="479" y="289" type="line" smooth="yes"/>
      <point x="489" y="332"/>
      <point x="471" y="343"/>
      <point x="431" y="343" type="curve" smooth="yes"/>
      <point x="384" y="343" type="line"/>
      <point x="338" y="160" type="line"/>
      <point x="323" y="160" type="line"/>
      <point x="418" y="541" type="line"/>
      <point x="484" y="541" type="line" smooth="yes"/>
      <point x="544" y="541"/>
      <point x="550" y="505"/>
      <point x="537" y="451" type="curve" smooth="yes"/>
    </contour>
    <contour>
      <point x="99" y="177"/>
      <point x="194" y="45"/>
      <point x="358" y="45" type="curve" smooth="yes"/>
      <point x="521" y="45"/>
      <point x="685" y="176"/>
      <point x="726" y="340" type="curve" smooth="yes"/>
      <point x="767" y="503"/>
      <point x="666" y="633"/>
      <point x="504" y="633" type="curve" smooth="yes"/>
      <point x="341" y="633"/>
      <point x="180" y="502"/>
      <point x="139" y="340" type="curve" smooth="yes"/>
    </contour>
    <contour>
      <point x="165" y="511"/>
      <point x="337" y="649"/>
      <point x="508" y="649" type="curve" smooth="yes"/>
      <point x="679" y="649"/>
      <point x="784" y="511"/>
      <point x="741" y="340" type="curve" smooth="yes"/>
      <point x="699" y="169"/>
      <point x="525" y="30"/>
      <point x="354" y="30" type="curve" smooth="yes"/>
      <point x="184" y="30"/>
      <point x="80" y="170"/>
      <point x="122" y="340" type="curve" smooth="yes"/>
    </contour>
    <contour>
      <point x="49" y="155"/>
      <point x="161" y="3"/>
      <point x="347" y="3" type="curve" smooth="yes"/>
      <point x="533" y="3"/>
      <point x="723" y="153"/>
      <point x="769" y="340" type="curve" smooth="yes"/>
      <point x="816" y="526"/>
      <point x="701" y="677"/>
      <point x="515" y="677" type="curve" smooth="yes"/>
      <point x="328" y="677"/>
      <point x="142" y="526"/>
      <point x="95" y="340" type="curve" smooth="yes"/>
    </contour>
    <contour>
      <point x="203" y="487"/>
      <point x="350" y="605"/>
      <point x="497" y="605" type="curve" smooth="yes"/>
      <point x="644" y="605"/>
      <point x="735" y="488"/>
      <point x="698" y="340" type="curve" smooth="yes"/>
      <point x="661" y="192"/>
      <point x="513" y="73"/>
      <point x="365" y="73" type="curve" smooth="yes"/>
      <point x="217" y="73"/>
      <point x="130" y="193"/>
      <point x="166" y="340" type="curve" smooth="yes"/>
    </contour>
    <contour>
      <point x="582" y="522"/>
      <point x="573" y="568"/>
      <point x="491" y="568" type="curve" smooth="yes"/>
      <point x="398" y="568" type="line"/>
      <point x="289" y="132" type="line"/>
      <point x="359" y="132" type="line"/>
      <point x="405" y="316" type="line"/>
      <point x="424" y="316" type="line" smooth="yes"/>
      <point x="446" y="316"/>
      <point x="457" y="310"/>
      <point x="452" y="289" type="curve" smooth="yes"/>
      <point x="412" y="132" type="line"/>
      <point x="482" y="132" type="line"/>
      <point x="523" y="293" type="line" smooth="yes"/>
      <point x="529" y="317"/>
      <point x="524" y="339"/>
      <point x="514" y="355" type="curve"/>
      <point x="539" y="383"/>
      <point x="556" y="420"/>
      <point x="564" y="451" type="curve" smooth="yes"/>
    </contour>
    <contour>
      <point x="423" y="386" type="line"/>
      <point x="451" y="499" type="line"/>
      <point x="470" y="499" type="line" smooth="yes"/>
      <point x="498" y="499"/>
      <point x="502" y="480"/>
      <point x="495" y="451" type="curve" smooth="yes"/>
      <point x="487" y="420"/>
      <point x="473" y="386"/>
      <point x="442" y="386" type="curve" smooth="yes"/>
    </contour>
  </outline>
</glyph>
<glyph name="degree" format="1">
  <advance width="232"/>
  <unicode hex="00B0"/>
  <outline>
    <contour>
      <point x="193" y="592"/>
      <point x="209" y="570"/>
      <point x="237" y="570" type="curve" smooth="yes"/>
      <point x="266" y="570"/>
      <point x="295" y="591"/>
      <point x="302" y="620" type="curve" smooth="yes"/>
      <point x="310" y="650"/>
      <point x="291" y="671"/>
      <point x="262" y="671" type="curve" smooth="yes"/>
      <point x="234" y="671"/>
      <point x="207" y="649"/>
      <point x="200" y="620" type="curve" smooth="yes"/>
    </contour>
    <contour>
      <point x="190" y="656"/>
      <point x="229" y="688"/>
      <point x="266" y="688" type="curve" smooth="yes"/>
      <point x="304" y="688"/>
      <point x="329" y="658"/>
      <point x="319" y="619" type="curve" smooth="yes"/>
      <point x="309" y="581"/>
      <point x="270" y="551"/>
      <point x="232" y="551" type="curve" smooth="yes"/>
      <point x="195" y="551"/>
      <point x="172" y="583"/>
      <point x="181" y="619" type="curve" smooth="yes"/>
    </contour>
    <contour>
      <point x="141" y="568"/>
      <point x="172" y="523"/>
      <point x="225" y="523" type="curve" smooth="yes"/>
      <point x="278" y="523"/>
      <point x="333" y="565"/>
      <point x="347" y="619" type="curve" smooth="yes"/>
      <point x="361" y="674"/>
      <point x="326" y="716"/>
      <point x="273" y="716" type="curve" smooth="yes"/>
      <point x="220" y="716"/>
      <point x="167" y="671"/>
      <point x="154" y="619" type="curve" smooth="yes"/>
    </contour>
    <contour>
      <point x="230" y="633"/>
      <point x="243" y="643"/>
      <point x="255" y="643" type="curve" smooth="yes"/>
      <point x="269" y="643"/>
      <point x="278" y="634"/>
      <point x="274" y="620" type="curve"/>
      <point x="271" y="607"/>
      <point x="257" y="597"/>
      <point x="243" y="597" type="curve" smooth="yes"/>
      <point x="231" y="597"/>
      <point x="224" y="607"/>
      <point x="227" y="620" type="curve" smooth="yes"/>
    </contour>
  </outline>
</glyph>
<glyph name="cedilla" format="1">
  <advance width="184"/>
  <unicode hex="00B8"/>
  <outline>
    <contour>
      <point x="78" y="-27"/>
      <point x="60" y="-16"/>
      <point x="44" y="-12" type="curve"/>
      <point x="47" y="-11"/>
      <point x="49" y="-10"/>
      <point x="52" y="-9" type="curve"/>
      <point x="57" y="-8"/>
      <point x="62" y="-7"/>
      <point x="67" y="-7" type="curve" smooth="yes"/>
      <point x="71" y="-7"/>
      <point x="75" y="-7"/>
      <point x="78" y="-8" type="curve"/>
      <point x="91" y="-11"/>
      <point x="98" y="-22"/>
      <point x="94" y="-39" type="curve" smooth="yes"/>
      <point x="88" y="-62"/>
      <point x="62" y="-83"/>
      <point x="40" y="-88" type="curve"/>
      <point x="39" y="-81" type="line"/>
      <point x="52" y="-75"/>
      <point x="69" y="-61"/>
      <point x="73" y="-48" type="curve"/>
    </contour>
    <contour>
      <point x="45" y="-51"/>
      <point x="21" y="-62"/>
      <point x="5" y="-69" type="curve"/>
      <point x="18" y="-120" type="line"/>
      <point x="62" y="-109"/>
      <point x="112" y="-75"/>
      <point x="121" y="-39" type="curve" smooth="yes"/>
      <point x="129" y="-5"/>
      <point x="104" y="19"/>
      <point x="75" y="19" type="curve"/>
      <point x="81" y="41" type="line"/>
      <point x="46" y="41" type="line" smooth="yes"/>
      <point x="46" y="41"/>
      <point x="41" y="22"/>
      <point x="39" y="15" type="curve"/>
      <point x="26" y="-38" type="line"/>
      <point x="36" y="-39"/>
      <point x="47" y="-43"/>
      <point x="46" y="-48" type="curve"/>
    </contour>
  </outline>
</glyph>
<glyph name="ordmasculine" format="1">
  <advance width="232"/>
  <unicode hex="00BA"/>
  <outline>
    <contour>
      <point x="189" y="579"/>
      <point x="206" y="558"/>
      <point x="234" y="558" type="curve" smooth="yes"/>
      <point x="262" y="558"/>
      <point x="289" y="579"/>
      <point x="296" y="607" type="curve" smooth="yes"/>
      <point x="303" y="635"/>
      <point x="288" y="658"/>
      <point x="259" y="658" type="curve" smooth="yes"/>
      <point x="231" y="658"/>
      <point x="203" y="635"/>
      <point x="196" y="607" type="curve" smooth="yes"/>
    </contour>
    <contour>
      <point x="188" y="644"/>
      <point x="227" y="674"/>
      <point x="263" y="674" type="curve" smooth="yes"/>
      <point x="300" y="674"/>
      <point x="323" y="644"/>
      <point x="314" y="607" type="curve" smooth="yes"/>
      <point x="305" y="571"/>
      <point x="266" y="540"/>
      <point x="229" y="540" type="curve" smooth="yes"/>
      <point x="193" y="540"/>
      <point x="170" y="571"/>
      <point x="179" y="607" type="curve" smooth="yes"/>
    </contour>
    <contour>
      <point x="139" y="556"/>
      <point x="171" y="513"/>
      <point x="222" y="513" type="curve" smooth="yes"/>
      <point x="273" y="513"/>
      <point x="328" y="556"/>
      <point x="341" y="607" type="curve" smooth="yes"/>
      <point x="354" y="658"/>
      <point x="320" y="701"/>
      <point x="269" y="701" type="curve" smooth="yes"/>
      <point x="218" y="701"/>
      <point x="165" y="658"/>
      <point x="152" y="607" type="curve" smooth="yes"/>
    </contour>
    <contour>
      <point x="226" y="621"/>
      <point x="239" y="631"/>
      <point x="252" y="631" type="curve" smooth="yes"/>
      <point x="266" y="631"/>
      <point x="272" y="621"/>
      <point x="269" y="607" type="curve" smooth="yes"/>
      <point x="266" y="595"/>
      <point x="253" y="585"/>
      <point x="240" y="585" type="curve" smooth="yes"/>
      <point x="228" y="585"/>
      <point x="220" y="595"/>
      <point x="223" y="607" type="curve" smooth="yes"/>
    </contour>
  </outline>
</glyph>
<glyph name="questiondown" format="1">
  <advance width="346"/>
  <unicode hex="00BF"/>
  <outline>
    <contour>
      <point x="328" y="551" type="line"/>
      <point x="255" y="551" type="line"/>
      <point x="245" y="512" type="line" smooth="yes"/>
      <point x="230" y="451"/>
      <point x="218" y="416"/>
      <point x="173" y="370" type="curve"/>
      <point x="114" y="314"/>
      <point x="61" y="254"/>
      <point x="41" y="173" type="curve" smooth="yes"/>
      <point x="17" y="77"/>
      <point x="35" y="-5"/>
      <point x="146" y="-5" type="curve" smooth="yes"/>
      <point x="267" y="-5"/>
      <point x="331" y="127"/>
      <point x="357" y="232" type="curve"/>
      <point x="284" y="232" type="line"/>
      <point x="267" y="163"/>
      <point x="229" y="69"/>
      <point x="166" y="69" type="curve" smooth="yes"/>
      <point x="104" y="69"/>
      <point x="101" y="119"/>
      <point x="116" y="177" type="curve" smooth="yes"/>
      <point x="130" y="236"/>
      <point x="157" y="264"/>
      <point x="188" y="295" type="curve"/>
      <point x="188" y="294" type="line"/>
      <point x="236" y="343"/>
      <point x="280" y="359"/>
      <point x="317" y="508" type="curve" smooth="yes"/>
    </contour>
    <contour>
      <point x="286" y="675" type="line"/>
      <point x="265" y="591" type="line"/>
      <point x="338" y="591" type="line"/>
      <point x="359" y="675" type="line"/>
    </contour>
    <contour>
      <point x="325" y="647" type="line"/>
      <point x="318" y="618" type="line"/>
      <point x="299" y="618" type="line"/>
      <point x="306" y="647" type="line"/>
    </contour>
    <contour>
      <point x="290" y="508" type="line" smooth="yes"/>
      <point x="239" y="303"/>
      <point x="125" y="328"/>
      <point x="88" y="177" type="curve" smooth="yes"/>
      <point x="70" y="105"/>
      <point x="75" y="41"/>
      <point x="159" y="41" type="curve" smooth="yes"/>
      <point x="245" y="41"/>
      <point x="288" y="136"/>
      <point x="306" y="205" type="curve"/>
      <point x="323" y="205" type="line"/>
      <point x="302" y="124"/>
      <point x="252" y="23"/>
      <point x="153" y="23" type="curve" smooth="yes"/>
      <point x="62" y="23"/>
      <point x="48" y="92"/>
      <point x="69" y="173" type="curve" smooth="yes"/>
      <point x="88" y="251"/>
      <point x="128" y="295"/>
      <point x="190" y="353" type="curve"/>
      <point x="190" y="353" type="line"/>
      <point x="248" y="417"/>
      <point x="263" y="475"/>
      <point x="275" y="523" type="curve"/>
      <point x="294" y="523" type="line"/>
    </contour>
  </outline>
</glyph>
<glyph name="Atilde" format="1">
  <advance width="435"/>
  <unicode hex="00C3"/>
  <outline>
    <contour>
      <point x="342" y="601" type="line"/>
      <point x="169" y="238" type="line"/>
      <point x="335" y="238" type="line"/>
    </contour>
    <contour>
      <point x="69" y="28" type="line"/>
      <point x="50" y="28" type="line"/>
      <point x="347" y="647" type="line"/>
      <point x="361" y="647" type="line"/>
      <point x="347" y="28" type="line"/>
      <point x="329" y="28" type="line"/>
      <point x="334" y="220" type="line"/>
      <point x="160" y="220" type="line"/>
    </contour>
    <contour>
      <point x="85" y="0" type="line"/>
      <point x="178" y="193" type="line"/>
      <point x="306" y="193" type="line"/>
      <point x="300" y="0" type="line"/>
      <point x="375" y="0" type="line"/>
      <point x="390" y="674" type="line"/>
      <point x="332" y="674" type="line"/>
      <point x="10" y="0" type="line"/>
    </contour>
    <contour>
      <point x="312" y="479" type="line"/>
      <point x="307" y="265" type="line"/>
      <point x="211" y="265" type="line"/>
    </contour>
    <contour>
      <point x="501" y="757" type="line"/>
      <point x="484" y="751"/>
      <point x="466" y="745"/>
      <point x="450" y="745" type="curve" smooth="yes"/>
      <point x="403" y="745"/>
      <point x="379" y="784"/>
      <point x="336" y="784" type="curve" smooth="yes"/>
      <point x="316" y="784"/>
      <point x="296" y="775"/>
      <point x="279" y="761" type="curve"/>
      <point x="268" y="776" type="line"/>
      <point x="289" y="789"/>
      <point x="315" y="804"/>
      <point x="339" y="804" type="curve" smooth="yes"/>
      <point x="388" y="804"/>
      <point x="414" y="764"/>
      <point x="457" y="764" type="curve" smooth="yes"/>
      <point x="466" y="764"/>
      <point x="479" y="770"/>
      <point x="489" y="773" type="curve"/>
    </contour>
    <contour>
      <point x="504" y="808" type="line"/>
      <point x="487" y="799" type="line"/>
      <point x="478" y="795"/>
      <point x="468" y="792"/>
      <point x="464" y="792" type="curve" smooth="yes"/>
      <point x="449" y="792"/>
      <point x="435" y="800"/>
      <point x="419" y="808" type="curve"/>
      <point x="420" y="808" type="line"/>
      <point x="398" y="819"/>
      <point x="376" y="831"/>
      <point x="345" y="831" type="curve" smooth="yes"/>
      <point x="313" y="831"/>
      <point x="267" y="804"/>
      <point x="227" y="780" type="curve"/>
      <point x="269" y="723" type="line"/>
      <point x="295" y="743"/>
      <point x="317" y="757"/>
      <point x="329" y="757" type="curve" smooth="yes"/>
      <point x="344" y="757"/>
      <point x="357" y="748"/>
      <point x="372" y="740" type="curve"/>
      <point x="392" y="728"/>
      <point x="412" y="717"/>
      <point x="443" y="717" type="curve" smooth="yes"/>
      <point x="464" y="717"/>
      <point x="507" y="732"/>
      <point x="544" y="745" type="curve"/>
    </contour>
  </outline>
</glyph>
<glyph name="germandbls" format="1">
  <advance width="346"/>
  <unicode hex="00DF"/>
  <outline>
    <contour>
      <point x="28" y="27" type="line"/>
      <point x="137" y="464" type="line" smooth="yes"/>
      <point x="156" y="541"/>
      <point x="199" y="632"/>
      <point x="292" y="632" type="curve" smooth="yes"/>
      <point x="382" y="632"/>
      <point x="390" y="566"/>
      <point x="370" y="487" type="curve" smooth="yes"/>
      <point x="357" y="437"/>
      <point x="319" y="349"/>
      <point x="256" y="337" type="curve"/>
      <point x="253" y="325" type="line"/>
      <point x="323" y="312"/>
      <point x="343" y="252"/>
      <point x="325" y="179" type="curve" smooth="yes"/>
      <point x="299" y="75"/>
      <point x="242" y="27"/>
      <point x="137" y="27" type="curve"/>
      <point x="141" y="44" type="line"/>
      <point x="236" y="44"/>
      <point x="285" y="85"/>
      <point x="308" y="179" type="curve" smooth="yes"/>
      <point x="329" y="262"/>
      <point x="291" y="315"/>
      <point x="211" y="321" type="curve"/>
      <point x="215" y="338" type="line"/>
      <point x="298" y="341"/>
      <point x="335" y="420"/>
      <point x="352" y="487" type="curve" smooth="yes"/>
      <point x="370" y="560"/>
      <point x="370" y="615"/>
      <point x="285" y="615" type="curve" smooth="yes"/>
      <point x="200" y="615"/>
      <point x="163" y="496"/>
      <point x="148" y="436" type="curve" smooth="yes"/>
      <point x="46" y="27" type="line"/>
    </contour>
    <contour>
      <point x="67" y="0" type="line"/>
      <point x="175" y="436" type="line" smooth="yes"/>
      <point x="188" y="487"/>
      <point x="218" y="588"/>
      <point x="278" y="588" type="curve" smooth="yes"/>
      <point x="340" y="588"/>
      <point x="340" y="545"/>
      <point x="326" y="487" type="curve" smooth="yes"/>
      <point x="312" y="432"/>
      <point x="277" y="367"/>
      <point x="195" y="364" type="curve"/>
      <point x="178" y="296" type="line"/>
      <point x="258" y="290"/>
      <point x="298" y="246"/>
      <point x="281" y="179" type="curve" smooth="yes"/>
      <point x="262" y="104"/>
      <point x="216" y="71"/>
      <point x="122" y="71" type="curve"/>
      <point x="105" y="0" type="line"/>
      <point x="247" y="0"/>
      <point x="321" y="56"/>
      <point x="352" y="179" type="curve" smooth="yes"/>
      <point x="369" y="247"/>
      <point x="356" y="306"/>
      <point x="307" y="336" type="curve"/>
      <point x="356" y="373"/>
      <point x="386" y="443"/>
      <point x="397" y="487" type="curve" smooth="yes"/>
      <point x="420" y="580"/>
      <point x="411" y="659"/>
      <point x="299" y="659" type="curve" smooth="yes"/>
      <point x="184" y="659"/>
      <point x="133" y="554"/>
      <point x="110" y="464" type="curve" smooth="yes"/>
      <point x="-5" y="0" type="line"/>
    </contour>
  </outline>
</glyph>
<glyph name="aring" format="1">
  <advance width="435"/>
  <unicode hex="00E5"/>
  <outline>
    <contour>
      <point x="342" y="601" type="line"/>
      <point x="169" y="238" type="line"/>
      <point x="335" y="238" type="line"/>
    </contour>
    <contour>
      <point x="69" y="28" type="line"/>
      <point x="50" y="28" type="line"/>
      <point x="347" y="647" type="line"/>
      <point x="361" y="647" type="line"/>
      <point x="347" y="28" type="line"/>
      <point x="329" y="28" type="line"/>
      <point x="334" y="220" type="line"/>
      <point x="160" y="220" type="line"/>
    </contour>
    <contour>
      <point x="85" y="0" type="line"/>
      <point x="178" y="193" type="line"/>
      <point x="306" y="193" type="line"/>
      <point x="300" y="0" type="line"/>
      <point x="375" y="0" type="line"/>
      <point x="390" y="674" type="line"/>
      <point x="332" y="674" type="line"/>
      <point x="10" y="0" type="line"/>
    </contour>
    <contour>
      <point x="312" y="479" type="line"/>
      <point x="307" y="265" type="line"/>
      <point x="211" y="265" type="line"/>
    </contour>
    <contour>
      <point x="327" y="723"/>
      <point x="339" y="705"/>
      <point x="367" y="705" type="curve" smooth="yes"/>
      <point x="392" y="705"/>
      <point x="418" y="723"/>
      <point x="424" y="749" type="curve"/>
      <point x="431" y="775"/>
      <point x="415" y="795"/>
      <point x="390" y="795" type="curve" smooth="yes"/>
      <point x="363" y="795"/>
      <point x="340" y="777"/>
      <point x="334" y="750" type="curve"/>
    </contour>
    <contour>
      <point x="323" y="784"/>
      <point x="360" y="814"/>
      <point x="395" y="814" type="curve" smooth="yes"/>
      <point x="430" y="814"/>
      <point x="451" y="784"/>
      <point x="442" y="749" type="curve" smooth="yes"/>
      <point x="434" y="714"/>
      <point x="398" y="687"/>
      <point x="363" y="687" type="curve" smooth="yes"/>
      <point x="328" y="687"/>
      <point x="306" y="714"/>
      <point x="314" y="749" type="curve" smooth="yes"/>
    </contour>
    <contour>
      <point x="275" y="699"/>
      <point x="305" y="659"/>
      <point x="356" y="659" type="curve" smooth="yes"/>
      <point x="405" y="659"/>
      <point x="458" y="699"/>
      <point x="470" y="749" type="curve" smooth="yes"/>
      <point x="483" y="799"/>
      <point x="450" y="841"/>
      <point x="401" y="841" type="curve" smooth="yes"/>
      <point x="350" y="841"/>
      <point x="300" y="799"/>
      <point x="287" y="749" type="curve" smooth="yes"/>
    </contour>
    <contour>
      <point x="363" y="760"/>
      <point x="373" y="768"/>
      <point x="383" y="768" type="curve" smooth="yes"/>
      <point x="393" y="768"/>
      <point x="399" y="759"/>
      <point x="396" y="749" type="curve"/>
      <point x="394" y="739"/>
      <point x="384" y="733"/>
      <point x="374" y="733" type="curve" smooth="yes"/>
      <point x="363" y="733"/>
      <point x="358" y="739"/>
      <point x="361" y="750" type="curve"/>
    </contour>
  </outline>
</glyph>
<glyph name="ccedilla" format="1">
  <advance width="381"/>
  <unicode hex="00E7"/>
  <outline>
    <contour>
      <point x="183" y="12" type="line"/>
      <point x="175" y="-23" type="line"/>
      <point x="203" y="-24"/>
      <point x="214" y="-40"/>
      <point x="210" y="-55" type="curve" smooth="yes"/>
      <point x="204" y="-80"/>
      <point x="170" y="-104"/>
      <point x="147" y="-113" type="curve"/>
      <point x="142" y="-95" type="line"/>
      <point x="154" y="-89"/>
      <point x="183" y="-73"/>
      <point x="185" y="-57" type="curve" smooth="yes"/>
      <point x="187" y="-41"/>
      <point x="168" y="-40"/>
      <point x="151" y="-40" type="curve"/>
      <point x="152" y="-36"/>
      <point x="151" y="-39"/>
      <point x="163" y="12" type="curve"/>
      <point x="166" y="21" type="line"/>
      <point x="166" y="21" type="line" smooth="yes"/>
      <point x="80" y="21"/>
      <point x="51" y="92"/>
      <point x="74" y="183" type="curve" smooth="yes"/>
      <point x="151" y="492" type="line" smooth="yes"/>
      <point x="174" y="583"/>
      <point x="233" y="653"/>
      <point x="330" y="653" type="curve" smooth="yes"/>
      <point x="428" y="653"/>
      <point x="449" y="583"/>
      <point x="421" y="472" type="curve"/>
      <point x="403" y="472" type="line"/>
      <point x="424" y="555"/>
      <point x="427" y="636"/>
      <point x="326" y="636" type="curve" smooth="yes"/>
      <point x="241" y="636"/>
      <point x="188" y="568"/>
      <point x="169" y="492" type="curve" smooth="yes"/>
      <point x="92" y="183" type="line" smooth="yes"/>
      <point x="73" y="107"/>
      <point x="91" y="39"/>
      <point x="176" y="39" type="curve" smooth="yes"/>
      <point x="277" y="39"/>
      <point x="316" y="121"/>
      <point x="336" y="203" type="curve"/>
      <point x="354" y="203" type="line"/>
      <point x="329" y="103"/>
      <point x="288" y="29"/>
      <point x="186" y="21" type="curve"/>
    </contour>
    <contour>
      <point x="151" y="-77"/>
      <point x="117" y="-88"/>
      <point x="118" y="-88" type="curve"/>
      <point x="131" y="-139" type="line"/>
      <point x="173" y="-124"/>
      <point x="222" y="-92"/>
      <point x="231" y="-56" type="curve" smooth="yes"/>
      <point x="238" y="-28"/>
      <point x="221" y="-10"/>
      <point x="200" y="-3" type="curve"/>
      <point x="321" y="12"/>
      <point x="360" y="115"/>
      <point x="389" y="231" type="curve"/>
      <point x="315" y="231" type="line"/>
      <point x="292" y="137"/>
      <point x="262" y="66"/>
      <point x="183" y="66" type="curve" smooth="yes"/>
      <point x="117" y="66"/>
      <point x="105" y="121"/>
      <point x="120" y="183" type="curve" smooth="yes"/>
      <point x="197" y="492" type="line" smooth="yes"/>
      <point x="213" y="554"/>
      <point x="253" y="608"/>
      <point x="319" y="608" type="curve" smooth="yes"/>
      <point x="405" y="608"/>
      <point x="389" y="527"/>
      <point x="368" y="444" type="curve"/>
      <point x="442" y="444" type="line"/>
      <point x="481" y="599"/>
      <point x="471" y="681"/>
      <point x="337" y="681" type="curve" smooth="yes"/>
      <point x="221" y="681"/>
      <point x="150" y="599"/>
      <point x="123" y="492" type="curve" smooth="yes"/>
      <point x="46" y="183" type="line" smooth="yes"/>
      <point x="21" y="84"/>
      <point x="44" y="6"/>
      <point x="140" y="-4" type="curve"/>
      <point x="126" y="-58" type="line"/>
      <point x="136" y="-59"/>
      <point x="156" y="-60"/>
      <point x="154" y="-65" type="curve"/>
    </contour>
  </outline>
</glyph>
<glyph name="idieresis" format="1">
  <advance width="144"/>
  <unicode hex="00EF"/>
  <outline>
    <contour>
      <point x="40" y="28" type="line"/>
      <point x="195" y="647" type="line"/>
      <point x="214" y="647" type="line"/>
      <point x="59" y="28" type="line"/>
    </contour>
    <contour>
      <point x="80" y="0" type="line"/>
      <point x="248" y="674" type="line"/>
      <point x="175" y="674" type="line"/>
      <point x="7" y="0" type="line"/>
    </contour>
    <contour>
      <point x="312" y="748" type="line"/>
      <point x="294" y="748" type="line"/>
      <point x="301" y="777" type="line"/>
      <point x="319" y="777" type="line"/>
    </contour>
    <contour>
      <point x="167" y="748" type="line"/>
      <point x="148" y="748" type="line"/>
      <point x="155" y="777" type="line"/>
      <point x="174" y="777" type="line"/>
    </contour>
    <contour>
      <point x="208" y="805" type="line"/>
      <point x="135" y="805" type="line"/>
      <point x="114" y="721" type="line"/>
      <point x="187" y="721" type="line"/>
    </contour>
    <contour>
      <point x="354" y="805" type="line"/>
      <point x="280" y="805" type="line"/>
      <point x="259" y="721" type="line"/>
      <point x="333" y="721" type="line"/>
    </contour>
  </outline>
</glyph>
<glyph name="eth" format="1">
  <advance width="375"/>
  <unicode hex="00F0"/>
  <outline>
    <contour>
      <point x="146" y="0" type="line" smooth="yes"/>
      <point x="269" y="0"/>
      <point x="333" y="83"/>
      <point x="360" y="192" type="curve" smooth="yes"/>
      <point x="433" y="482" type="line" smooth="yes"/>
      <point x="460" y="590"/>
      <point x="436" y="674"/>
      <point x="314" y="674" type="curve" smooth="yes"/>
      <point x="170" y="674" type="line"/>
      <point x="94" y="373" type="line"/>
      <point x="6" y="373" type="line"/>
      <point x="-11" y="300" type="line"/>
      <point x="76" y="300" type="line"/>
      <point x="2" y="0" type="line"/>
    </contour>
    <contour>
      <point x="93" y="73" type="line"/>
      <point x="149" y="300" type="line"/>
      <point x="229" y="300" type="line"/>
      <point x="247" y="373" type="line"/>
      <point x="167" y="373" type="line"/>
      <point x="225" y="602" type="line"/>
      <point x="290" y="602" type="line" smooth="yes"/>
      <point x="364" y="602"/>
      <point x="376" y="546"/>
      <point x="358" y="477" type="curve" smooth="yes"/>
      <point x="289" y="197" type="line" smooth="yes"/>
      <point x="271" y="128"/>
      <point x="232" y="73"/>
      <point x="158" y="73" type="curve" smooth="yes"/>
    </contour>
    <contour>
      <point x="36" y="28" type="line"/>
      <point x="111" y="328" type="line"/>
      <point x="22" y="328" type="line"/>
      <point x="27" y="345" type="line"/>
      <point x="116" y="345" type="line"/>
      <point x="191" y="647" type="line"/>
      <point x="307" y="647" type="line" smooth="yes"/>
      <point x="409" y="647"/>
      <point x="429" y="574"/>
      <point x="406" y="482" type="curve" smooth="yes"/>
      <point x="333" y="192" type="line" smooth="yes"/>
      <point x="310" y="98"/>
      <point x="255" y="28"/>
      <point x="152" y="28" type="curve" smooth="yes"/>
    </contour>
    <contour>
      <point x="59" y="45" type="line"/>
      <point x="151" y="45" type="line" smooth="yes"/>
      <point x="245" y="45"/>
      <point x="294" y="112"/>
      <point x="316" y="197" type="curve" smooth="yes"/>
      <point x="385" y="477" type="line" smooth="yes"/>
      <point x="407" y="562"/>
      <point x="390" y="629"/>
      <point x="296" y="629" type="curve" smooth="yes"/>
      <point x="204" y="629" type="line"/>
      <point x="134" y="345" type="line"/>
      <point x="213" y="345" type="line"/>
      <point x="208" y="328" type="line"/>
      <point x="129" y="328" type="line"/>
    </contour>
  </outline>
</glyph>
<glyph name="ograve" format="1">
  <advance width="391"/>
  <unicode hex="00F2"/>
  <outline>
    <contour>
      <point x="239" y="635"/>
      <point x="188" y="559"/>
      <point x="169" y="483" type="curve" smooth="yes"/>
      <point x="96" y="191" type="line" smooth="yes"/>
      <point x="76" y="112"/>
      <point x="88" y="40"/>
      <point x="178" y="40" type="curve" smooth="yes"/>
      <point x="268" y="40"/>
      <point x="314" y="108"/>
      <point x="334" y="188" type="curve" smooth="yes"/>
      <point x="408" y="482" type="line" smooth="yes"/>
      <point x="427" y="561"/>
      <point x="418" y="635"/>
      <point x="327" y="635" type="curve" smooth="yes"/>
    </contour>
    <contour>
      <point x="77" y="21"/>
      <point x="54" y="93"/>
      <point x="76" y="183" type="curve" smooth="yes"/>
      <point x="153" y="492" type="line" smooth="yes"/>
      <point x="175" y="579"/>
      <point x="237" y="655"/>
      <point x="332" y="655" type="curve" smooth="yes"/>
      <point x="428" y="655"/>
      <point x="450" y="579"/>
      <point x="428" y="492" type="curve" smooth="yes"/>
      <point x="351" y="183" type="line" smooth="yes"/>
      <point x="328" y="91"/>
      <point x="273" y="21"/>
      <point x="174" y="21" type="curve" smooth="yes"/>
    </contour>
    <contour>
      <point x="285" y="-6"/>
      <point x="352" y="75"/>
      <point x="379" y="183" type="curve" smooth="yes"/>
      <point x="456" y="492" type="line" smooth="yes"/>
      <point x="482" y="594"/>
      <point x="453" y="681"/>
      <point x="338" y="681" type="curve" smooth="yes"/>
      <point x="224" y="681"/>
      <point x="151" y="594"/>
      <point x="125" y="492" type="curve" smooth="yes"/>
      <point x="48" y="183" type="line" smooth="yes"/>
      <point x="22" y="77"/>
      <point x="51" y="-6"/>
      <point x="167" y="-6" type="curve" smooth="yes"/>
    </contour>
    <contour>
      <point x="390" y="607"/>
      <point x="396" y="546"/>
      <point x="380" y="482" type="curve" smooth="yes"/>
      <point x="306" y="188" type="line" smooth="yes"/>
      <point x="290" y="123"/>
      <point x="255" y="67"/>
      <point x="185" y="67" type="curve" smooth="yes"/>
      <point x="116" y="67"/>
      <point x="107" y="127"/>
      <point x="123" y="191" type="curve" smooth="yes"/>
      <point x="196" y="483" type="line" smooth="yes"/>
      <point x="212" y="546"/>
      <point x="252" y="607"/>
      <point x="320" y="607" type="curve" smooth="yes"/>
    </contour>
    <contour>
      <point x="356" y="733" type="line"/>
      <point x="325" y="809" type="line"/>
      <point x="346" y="809" type="line"/>
      <point x="374" y="733" type="line"/>
    </contour>
    <contour>
      <point x="416" y="706" type="line"/>
      <point x="368" y="837" type="line"/>
      <point x="280" y="837" type="line"/>
      <point x="335" y="706" type="line"/>
    </contour>
  </outline>
</glyph>
<glyph name="yacute" format="1">
  <advance width="353"/>
  <unicode hex="00FD"/>
  <outline>
    <contour>
      <point x="456" y="647" type="line"/>
      <point x="245" y="312" type="line"/>
      <point x="174" y="28" type="line"/>
      <point x="155" y="28" type="line"/>
      <point x="226" y="312" type="line"/>
      <point x="212" y="424"/>
      <point x="196" y="534"/>
      <point x="184" y="647" type="curve"/>
      <point x="203" y="647" type="line"/>
      <point x="243" y="337" type="line"/>
      <point x="437" y="647" type="line"/>
    </contour>
    <contour>
      <point x="425" y="674" type="line"/>
      <point x="374" y="592"/>
      <point x="317" y="502"/>
      <point x="262" y="416" type="curve"/>
      <point x="229" y="674" type="line"/>
      <point x="151" y="674" type="line"/>
      <point x="157" y="613"/>
      <point x="170" y="512"/>
      <point x="197" y="307" type="curve"/>
      <point x="121" y="0" type="line"/>
      <point x="195" y="0" type="line"/>
      <point x="271" y="307" type="line"/>
      <point x="503" y="674" type="line"/>
    </contour>
    <contour>
      <point x="322" y="734" type="line"/>
      <point x="383" y="809" type="line"/>
      <point x="402" y="809" type="line"/>
      <point x="335" y="734" type="line"/>
    </contour>
    <contour>
      <point x="342" y="707" type="line"/>
      <point x="459" y="837" type="line"/>
      <point x="374" y="837" type="line"/>
      <point x="268" y="707" type="line"/>
    </contour>
  </outline>
</glyph>
<glyph name="oe" format="1">
  <advance width="619"/>
  <unicode hex="0153"/>
  <outline>
    <contour>
      <point x="244" y="636"/>
      <point x="191" y="567"/>
      <point x="172" y="490" type="curve" smooth="yes"/>
      <point x="97" y="191" type="line" smooth="yes"/>
      <point x="78" y="113"/>
      <point x="96" y="45"/>
      <point x="183" y="45" type="curve" smooth="yes"/>
      <point x="270" y="45"/>
      <point x="322" y="119"/>
      <point x="342" y="197" type="curve" smooth="yes"/>
      <point x="415" y="490" type="line" smooth="yes"/>
      <point x="435" y="570"/>
      <point x="418" y="636"/>
      <point x="330" y="636" type="curve" smooth="yes"/>
    </contour>
    <contour>
      <point x="669" y="636" type="line"/>
      <point x="469" y="636" type="line"/>
      <point x="398" y="350" type="line"/>
      <point x="522" y="350" type="line"/>
      <point x="517" y="332" type="line"/>
      <point x="393" y="332" type="line"/>
      <point x="322" y="45" type="line"/>
      <point x="522" y="45" type="line"/>
      <point x="517" y="28" type="line"/>
      <point x="300" y="28" type="line"/>
      <point x="320" y="108" type="line"/>
      <point x="286" y="54"/>
      <point x="235" y="28"/>
      <point x="178" y="28" type="curve" smooth="yes"/>
      <point x="79" y="28"/>
      <point x="56" y="98"/>
      <point x="79" y="191" type="curve" smooth="yes"/>
      <point x="154" y="490" type="line" smooth="yes"/>
      <point x="176" y="579"/>
      <point x="237" y="653"/>
      <point x="334" y="653" type="curve" smooth="yes"/>
      <point x="384" y="653"/>
      <point x="433" y="635"/>
      <point x="439" y="584" type="curve"/>
      <point x="456" y="653" type="line"/>
      <point x="673" y="653" type="line"/>
    </contour>
    <contour>
      <point x="689" y="608" type="line"/>
      <point x="707" y="681" type="line"/>
      <point x="435" y="681" type="line"/>
      <point x="430" y="658" type="line"/>
      <point x="406" y="673"/>
      <point x="373" y="681"/>
      <point x="341" y="681" type="curve" smooth="yes"/>
      <point x="225" y="681"/>
      <point x="152" y="593"/>
      <point x="127" y="490" type="curve" smooth="yes"/>
      <point x="52" y="191" type="line" smooth="yes"/>
      <point x="25" y="83"/>
      <point x="53" y="0"/>
      <point x="172" y="0" type="curve" smooth="yes"/>
      <point x="208" y="0"/>
      <point x="242" y="9"/>
      <point x="272" y="28" type="curve"/>
      <point x="266" y="0" type="line"/>
      <point x="538" y="0" type="line"/>
      <point x="556" y="73" type="line"/>
      <point x="357" y="73" type="line"/>
      <point x="414" y="304" type="line"/>
      <point x="538" y="304" type="line"/>
      <point x="556" y="377" type="line"/>
      <point x="432" y="377" type="line"/>
      <point x="490" y="608" type="line"/>
    </contour>
    <contour>
      <point x="391" y="608"/>
      <point x="403" y="555"/>
      <point x="387" y="490" type="curve" smooth="yes"/>
      <point x="314" y="197" type="line" smooth="yes"/>
      <point x="298" y="133"/>
      <point x="257" y="73"/>
      <point x="190" y="73" type="curve" smooth="yes"/>
      <point x="123" y="73"/>
      <point x="109" y="128"/>
      <point x="125" y="191" type="curve" smooth="yes"/>
      <point x="200" y="490" type="line" smooth="yes"/>
      <point x="215" y="552"/>
      <point x="257" y="608"/>
      <point x="323" y="608" type="curve" smooth="yes"/>
    </contour>
  </outline>
</glyph>
<glyph name="circumflex" format="1">
  <advance width="186"/>
  <unicode hex="02C6"/>
  <outline>
    <contour>
      <point x="171" y="563" type="line"/>
      <point x="235" y="647" type="line"/>
      <point x="264" y="647" type="line"/>
      <point x="286" y="563" type="line"/>
      <point x="273" y="563" type="line"/>
      <point x="247" y="628" type="line"/>
      <point x="241" y="628" type="line"/>
      <point x="186" y="563" type="line"/>
    </contour>
    <contour>
      <point x="194" y="535" type="line"/>
      <point x="233" y="579" type="line"/>
      <point x="253" y="535" type="line"/>
      <point x="327" y="535" type="line"/>
      <point x="288" y="675" type="line"/>
      <point x="225" y="675" type="line"/>
      <point x="120" y="535" type="line"/>
    </contour>
  </outline>
</glyph>
<glyph name="endash" format="1">
  <advance width="319"/>
  <unicode hex="2013"/>
  <outline>
    <contour>
      <point x="114" y="326" type="line"/>
      <point x="118" y="344" type="line"/>
      <point x="334" y="344" type="line"/>
      <point x="330" y="326" type="line"/>
    </contour>
    <contour>
      <point x="350" y="298" type="line"/>
      <point x="368" y="372" type="line"/>
      <point x="97" y="372" type="line"/>
      <point x="79" y="298" type="line"/>
    </contour>
  </outline>
</glyph>
<glyph name="quotedblleft" format="1">
  <advance width="212"/>
  <unicode hex="201C"/>
  <outline>
    <contour>
      <point x="187" y="647" type="line"/>
      <point x="205" y="647" type="line"/>
      <point x="187" y="576" type="line"/>
      <point x="169" y="576" type="line"/>
    </contour>
    <contour>
      <point x="167" y="674" type="line"/>
      <point x="135" y="548" type="line"/>
      <point x="208" y="548" type="line"/>
      <point x="240" y="674" type="line"/>
    </contour>
    <contour>
      <point x="287" y="647" type="line"/>
      <point x="305" y="647" type="line"/>
      <point x="287" y="576" type="line"/>
      <point x="269" y="576" type="line"/>
    </contour>
    <contour>
      <point x="267" y="674" type="line"/>
      <point x="235" y="548" type="line"/>
      <point x="308" y="548" type="line"/>
      <point x="340" y="674" type="line"/>
    </contour>
  </outline>
</glyph>
<glyph name="bullet" format="1">
  <advance width="180"/>
  <unicode hex="2022"/>
  <outline>
    <contour>
      <point x="145" y="340"/>
      <point x="154" y="347"/>
      <point x="162" y="347" type="curve" smooth="yes"/>
      <point x="170" y="347"/>
      <point x="174" y="339"/>
      <point x="172" y="332" type="curve" smooth="yes"/>
      <point x="170" y="324"/>
      <point x="163" y="317"/>
      <point x="155" y="317" type="curve" smooth="yes"/>
      <point x="147" y="317"/>
      <point x="141" y="323"/>
      <point x="143" y="332" type="curve" smooth="yes"/>
    </contour>
    <contour>
      <point x="109" y="308"/>
      <point x="125" y="289"/>
      <point x="148" y="289" type="curve" smooth="yes"/>
      <point x="173" y="289"/>
      <point x="194" y="310"/>
      <point x="199" y="332" type="curve" smooth="yes"/>
      <point x="204" y="352"/>
      <point x="194" y="375"/>
      <point x="169" y="375" type="curve" smooth="yes"/>
      <point x="146" y="375"/>
      <point x="121" y="354"/>
      <point x="115" y="332" type="curve" smooth="yes"/>
    </contour>
  </outline>
</glyph>
<glyph name="ellipsis" format="1">
  <advance width="335"/>
  <unicode hex="2026"/>
  <outline>
    <contour>
      <point x="248" y="28" type="line"/>
      <point x="256" y="57" type="line"/>
      <point x="274" y="57" type="line"/>
      <point x="266" y="28" type="line"/>
    </contour>
    <contour>
      <point x="141" y="28" type="line"/>
      <point x="149" y="57" type="line"/>
      <point x="169" y="57" type="line"/>
      <point x="161" y="28" type="line"/>
    </contour>
    <contour>
      <point x="36" y="28" type="line"/>
      <point x="44" y="57" type="line"/>
      <point x="62" y="57" type="line"/>
      <point x="54" y="28" type="line"/>
    </contour>
    <contour>
      <point x="76" y="0" type="line"/>
      <point x="96" y="84" type="line"/>
      <point x="23" y="84" type="line"/>
      <point x="3" y="0" type="line"/>
    </contour>
    <contour>
      <point x="182" y="0" type="line"/>
      <point x="202" y="84" type="line"/>
      <point x="128" y="84" type="line"/>
      <point x="108" y="0" type="line"/>
    </contour>
    <contour>
      <point x="288" y="0" type="line"/>
      <point x="308" y="84" type="line"/>
      <point x="234" y="84" type="line"/>
      <point x="214" y="0" type="line"/>
    </contour>
  </outline>
</glyph>
<glyph name="fi" format="1">
  <advance width="329"/>
  <unicode hex="FB01"/>
  <outline>
    <contour>
      <point x="235" y="27" type="line"/>
      <point x="382" y="615" type="line"/>
      <point x="198" y="615" type="line"/>
      <point x="129" y="338" type="line"/>
      <point x="248" y="338" type="line"/>
      <point x="244" y="321" type="line"/>
      <point x="125" y="321" type="line"/>
      <point x="51" y="27" type="line"/>
      <point x="34" y="27" type="line"/>
      <point x="185" y="632" type="line"/>
      <point x="404" y="632" type="line"/>
      <point x="253" y="27" type="line"/>
    </contour>
    <contour>
      <point x="273" y="0" type="line"/>
      <point x="437" y="659" type="line"/>
      <point x="165" y="659" type="line"/>
      <point x="1" y="0" type="line"/>
      <point x="72" y="0" type="line"/>
      <point x="145" y="295" type="line"/>
      <point x="264" y="295" type="line"/>
      <point x="282" y="365" type="line"/>
      <point x="163" y="365" type="line"/>
      <point x="218" y="588" type="line"/>
      <point x="348" y="588" type="line"/>
      <point x="202" y="0" type="line"/>
    </contour>
  </outline>
</glyph>
